<svg width="501" height="501" viewBox="0 0 501 501" fill="none" xmlns="http://www.w3.org/2000/svg">
<rect x="0.196289" y="0.5" width="500" height="500" rx="50" fill="white"/>
<g clip-path="url(#clip0_438_1777)">
<path d="M302.886 112.568C303.8 110.098 307.293 110.098 308.207 112.568C314.385 129.262 327.547 142.425 344.241 148.602C346.711 149.516 346.711 153.009 344.241 153.923C327.547 160.1 314.385 173.263 308.207 189.957C307.293 192.427 303.8 192.427 302.886 189.957C296.709 173.263 283.546 160.1 266.852 153.923C264.383 153.009 264.383 149.516 266.852 148.602C283.546 142.425 296.709 129.262 302.886 112.568Z" fill="#09132F"/>
<path d="M351.441 324.129C351.441 276.629 313.597 237.862 266.076 235.66C263.721 235.551 261.807 237.473 261.807 239.83V408.428C261.807 410.786 263.721 412.706 266.076 412.598C313.597 410.395 351.441 371.628 351.441 324.129Z" fill="#1FC468"/>
<path d="M238.329 143.923V411.628H163.9C157.233 411.628 149.762 403.625 149.762 397.489V88.3049C149.762 81.2329 155.495 75.5 162.567 75.5H279.656C281.897 75.5 282.539 78.5666 280.485 79.4651C254.876 90.669 238.329 115.97 238.329 143.923Z" fill="#1FC468"/>
</g>
<defs>
<clipPath id="clip0_438_1777">
<rect width="207.813" height="350" fill="white" transform="translate(146.29 75.5)"/>
</clipPath>
</defs>
</svg>
