<svg width="433" height="340" viewBox="0 0 433 340" fill="none" xmlns="http://www.w3.org/2000/svg">
<path d="M7.5 7H283C312.271 7 336 30.7289 336 60V332.5" stroke="url(#paint0_linear_297_1880)" stroke-width="14" stroke-linecap="round"/>
<path d="M7.5 7H283C312.271 7 336 30.7289 336 60V332.5" stroke="url(#paint1_linear_297_1880)" stroke-width="14" stroke-linecap="round"/>
<path d="M37.5 7H313C342.271 7 366 30.7289 366 60V332.5" stroke="url(#paint2_linear_297_1880)" stroke-width="14" stroke-linecap="round"/>
<path d="M67.5 7H343C372.271 7 396 30.7289 396 60V332.5" stroke="url(#paint3_linear_297_1880)" stroke-width="14" stroke-linecap="round"/>
<path d="M97.5 7H373C402.271 7 426 30.7289 426 60V332.5" stroke="url(#paint4_linear_297_1880)" stroke-width="14" stroke-linecap="round"/>
<defs>
<linearGradient id="paint0_linear_297_1880" x1="7.5" y1="-9.62599" x2="178.245" y2="357.966" gradientUnits="userSpaceOnUse">
<stop stop-color="#F1F5F9" stop-opacity="0"/>
<stop offset="0.480438" stop-color="#F1F5F9"/>
<stop offset="1" stop-color="#F1F5F9" stop-opacity="0"/>
</linearGradient>
<linearGradient id="paint1_linear_297_1880" x1="7.5" y1="-9.62599" x2="178.245" y2="357.966" gradientUnits="userSpaceOnUse">
<stop stop-color="#F1F5F9" stop-opacity="0"/>
<stop offset="0.480438" stop-color="#F1F5F9"/>
<stop offset="1" stop-color="#F1F5F9" stop-opacity="0"/>
</linearGradient>
<linearGradient id="paint2_linear_297_1880" x1="37.5" y1="-9.62599" x2="208.245" y2="357.966" gradientUnits="userSpaceOnUse">
<stop stop-color="#F1F5F9" stop-opacity="0"/>
<stop offset="0.480438" stop-color="#F1F5F9"/>
<stop offset="1" stop-color="#F1F5F9" stop-opacity="0"/>
</linearGradient>
<linearGradient id="paint3_linear_297_1880" x1="67.5" y1="-9.62599" x2="238.245" y2="357.966" gradientUnits="userSpaceOnUse">
<stop stop-color="#F1F5F9" stop-opacity="0"/>
<stop offset="0.480438" stop-color="#F1F5F9"/>
<stop offset="1" stop-color="#F1F5F9" stop-opacity="0"/>
</linearGradient>
<linearGradient id="paint4_linear_297_1880" x1="97.5" y1="-9.62599" x2="268.245" y2="357.966" gradientUnits="userSpaceOnUse">
<stop stop-color="#F1F5F9" stop-opacity="0"/>
<stop offset="0.480438" stop-color="#F1F5F9"/>
<stop offset="1" stop-color="#F1F5F9" stop-opacity="0"/>
</linearGradient>
</defs>
</svg>
