<svg width="117" height="32" viewBox="0 0 117 32" fill="none" xmlns="http://www.w3.org/2000/svg">
<g clip-path="url(#clip0_233_1390)">
<path d="M14.3174 3.38905C14.401 3.16326 14.7203 3.16326 14.8039 3.38905C15.3687 4.91537 16.5721 6.11879 18.0984 6.68359C18.3242 6.76714 18.3242 7.08652 18.0984 7.17007C16.5721 7.73487 15.3687 8.93828 14.8039 10.4646C14.7203 10.6904 14.401 10.6904 14.3174 10.4646C13.7526 8.93828 12.5492 7.73487 11.0229 7.17007C10.7971 7.08652 10.7971 6.76714 11.0229 6.68359C12.5492 6.11879 13.7526 4.91537 14.3174 3.38905Z" fill="#09132F"/>
<path d="M18.7562 22.7317C18.7562 18.3888 15.2961 14.8445 10.9513 14.6432C10.736 14.6332 10.561 14.8089 10.561 15.0244V30.439C10.561 30.6546 10.736 30.8302 10.9513 30.8203C15.2961 30.6189 18.7562 27.0745 18.7562 22.7317Z" fill="#1FC468"/>
<path d="M8.41446 6.25581V30.7317H1.60958C1 30.7317 0.316895 30 0.316895 29.439V1.17073C0.316895 0.524154 0.841049 0 1.48763 0H12.1929C12.3979 0 12.4565 0.280379 12.2688 0.362527C9.92737 1.38688 8.41446 3.70014 8.41446 6.25581Z" fill="#1FC468"/>
<path d="M30.334 24.878V4.57054H39.2257C40.1627 4.57054 41.0136 4.66615 41.7785 4.85736C42.5625 5.02946 43.2413 5.31629 43.815 5.71785C44.3886 6.11941 44.8284 6.65483 45.1344 7.3241C45.4594 7.99336 45.622 8.84429 45.622 9.87688C45.622 10.7182 45.4308 11.5022 45.0483 12.2289C44.6659 12.9555 44.1018 13.51 43.356 13.8925C44.3504 14.2176 45.1344 14.7817 45.708 15.5848C46.2817 16.3688 46.5685 17.4109 46.5685 18.7112C46.5685 19.8777 46.3486 20.8624 45.9088 21.6656C45.469 22.4496 44.8667 23.0806 44.1018 23.5586C43.3369 24.0367 42.4477 24.3809 41.4343 24.5912C40.4208 24.7824 39.3404 24.878 38.1931 24.878H30.334ZM34.4356 21.0919H38.6807C39.197 21.0919 39.6751 21.0537 40.1149 20.9772C40.5738 20.9007 40.9753 20.7764 41.3195 20.6043C41.6637 20.4131 41.9314 20.1549 42.1227 19.8299C42.333 19.5048 42.4382 19.1032 42.4382 18.6252C42.4382 18.1854 42.3521 17.822 42.18 17.5352C42.0271 17.2293 41.7976 16.9807 41.4916 16.7895C41.2048 16.5982 40.8606 16.4644 40.4591 16.3879C40.0766 16.3114 39.6464 16.2732 39.1683 16.2732H34.4356V21.0919ZM34.4356 12.8599H38.1931C38.7094 12.8599 39.1779 12.8121 39.5986 12.7165C40.0193 12.6209 40.373 12.4679 40.6598 12.2576C40.9467 12.0472 41.1666 11.7891 41.3195 11.4831C41.4725 11.158 41.549 10.7852 41.549 10.3645C41.5681 9.79083 41.4438 9.37015 41.1761 9.10244C40.9084 8.81561 40.5451 8.62439 40.0862 8.52878C39.6273 8.41405 39.111 8.35668 38.5373 8.35668H34.4356V12.8599ZM54.9082 25.0788C52.6901 25.0788 50.9787 24.5147 49.774 23.3865C48.5884 22.2392 47.9956 20.5182 47.9956 18.2236V9.76215H52.0113V17.9368C52.0113 18.6252 52.1069 19.2371 52.2981 19.7725C52.5084 20.2888 52.8239 20.6999 53.2446 21.0059C53.6844 21.3118 54.2485 21.4648 54.9369 21.4648C55.6827 21.4648 56.2563 21.3022 56.6579 20.9772C57.0595 20.6521 57.3367 20.2219 57.4897 19.6864C57.6427 19.1319 57.7192 18.5487 57.7192 17.9368V9.76215H61.7061V18.2236C61.7061 20.6139 61.1037 22.3539 59.8991 23.4439C58.7135 24.5339 57.0499 25.0788 54.9082 25.0788ZM70.5393 25.0788C68.3211 25.0788 66.6097 24.5147 65.405 23.3865C64.2194 22.2392 63.6267 20.5182 63.6267 18.2236V9.76215H67.6423V17.9368C67.6423 18.6252 67.7379 19.2371 67.9291 19.7725C68.1394 20.2888 68.455 20.6999 68.8756 21.0059C69.3154 21.3118 69.8795 21.4648 70.5679 21.4648C71.3137 21.4648 71.8873 21.3022 72.2889 20.9772C72.6905 20.6521 72.9677 20.2219 73.1207 19.6864C73.2737 19.1319 73.3502 18.5487 73.3502 17.9368V9.76215H77.3371V18.2236C77.3371 20.6139 76.7348 22.3539 75.5301 23.4439C74.3445 24.5339 72.6809 25.0788 70.5393 25.0788ZM86.0844 25.0788C84.5355 25.0788 83.2066 24.7633 82.0975 24.1323C81.0075 23.5013 80.1757 22.6121 79.6021 21.4648C79.0284 20.2983 78.7416 18.9311 78.7416 17.3631C78.7416 15.776 79.038 14.3992 79.6308 13.2328C80.2235 12.0472 81.0745 11.1294 82.1835 10.4792C83.3117 9.82907 84.6694 9.504 86.2565 9.504C87.4803 9.504 88.5703 9.7239 89.5264 10.1637C90.4825 10.6035 91.2474 11.2345 91.821 12.0568C92.4138 12.879 92.758 13.8925 92.8536 15.0972H88.924C88.7519 14.4279 88.4173 13.9403 87.9201 13.6343C87.4421 13.3284 86.8684 13.1754 86.1992 13.1754C85.3387 13.1754 84.6503 13.3858 84.134 13.8064C83.6368 14.2271 83.2735 14.7625 83.044 15.4127C82.8337 16.0628 82.7285 16.713 82.7285 17.3631C82.7285 18.0706 82.8433 18.7399 83.0727 19.3709C83.3022 19.9828 83.6655 20.4896 84.1627 20.8911C84.679 21.2736 85.3482 21.4648 86.1705 21.4648C86.8589 21.4648 87.4612 21.3118 87.9775 21.0059C88.4938 20.6808 88.8284 20.1836 88.9814 19.5143H92.997C92.9014 20.7573 92.5285 21.7899 91.8784 22.6121C91.2282 23.4343 90.3964 24.0558 89.383 24.4765C88.3886 24.878 87.2891 25.0788 86.0844 25.0788ZM94.2741 24.878V4.57054H98.2897V24.878H94.2741ZM107.009 31.848C105.842 31.848 104.704 31.695 103.595 31.3891C102.486 31.0831 101.444 30.5668 100.469 29.8402L101.817 26.6277C102.429 27.0866 103.127 27.4499 103.911 27.7177C104.695 28.0045 105.565 28.1479 106.521 28.1479C107.993 28.1479 109.083 27.8037 109.791 27.1153C110.517 26.4269 110.881 25.4326 110.881 24.1323V23.3292C110.556 23.769 110.145 24.1227 109.647 24.3904C109.169 24.639 108.653 24.8207 108.098 24.9354C107.544 25.0501 106.989 25.1075 106.435 25.1075C104.982 25.1075 103.815 24.8016 102.936 24.1897C102.056 23.5778 101.415 22.746 101.014 21.6942C100.631 20.6234 100.44 19.4092 100.44 18.0515V9.76215H104.456V17.2197C104.456 17.7169 104.484 18.214 104.542 18.7112C104.599 19.2084 104.733 19.6673 104.943 20.088C105.154 20.5087 105.469 20.8529 105.89 21.1206C106.311 21.3692 106.875 21.4935 107.582 21.4935C108.5 21.4935 109.188 21.2736 109.647 20.8338C110.106 20.3748 110.412 19.8012 110.565 19.1128C110.737 18.4244 110.823 17.7073 110.823 16.9616V9.76215H114.839V22.6981C114.839 24.0749 114.705 25.3274 114.437 26.4556C114.189 27.5838 113.759 28.5495 113.147 29.3526C112.554 30.1557 111.751 30.7676 110.737 31.1883C109.743 31.6281 108.5 31.848 107.009 31.848Z" fill="#09132F"/>
</g>
<defs>
<clipPath id="clip0_233_1390">
<rect width="116.293" height="32" fill="white" transform="translate(0.316895)"/>
</clipPath>
</defs>
</svg>
