<svg width="117" height="33" viewBox="0 0 117 33" fill="none" xmlns="http://www.w3.org/2000/svg">
<g clip-path="url(#clip0_304_1928)">
<path d="M14.001 3.88907C14.0845 3.66328 14.4039 3.66328 14.4875 3.88907C15.0523 5.41539 16.2557 6.61881 17.782 7.18361C18.0078 7.26716 18.0078 7.58654 17.782 7.67009C16.2557 8.23489 15.0523 9.4383 14.4875 10.9646C14.4039 11.1904 14.0845 11.1904 14.001 10.9646C13.4362 9.4383 12.2328 8.23489 10.7065 7.67009C10.4807 7.58654 10.4807 7.26716 10.7065 7.18361C12.2328 6.61881 13.4362 5.41539 14.001 3.88907Z" fill="#6B7280"/>
<path d="M18.4393 23.2315C18.4393 18.8887 14.9792 15.3443 10.6344 15.143C10.4191 15.133 10.2441 15.3087 10.2441 15.5242V30.9388C10.2441 31.1545 10.4191 31.3301 10.6344 31.3201C14.9792 31.1187 18.4393 27.5744 18.4393 23.2315Z" fill="#6B7280"/>
<path d="M8.09756 6.75581V31.2317H1.29268C0.683105 31.2317 0 30.5 0 29.939V1.67073C0 1.02415 0.524154 0.5 1.17073 0.5H11.876C12.081 0.5 12.1396 0.780379 11.9519 0.862527C9.61048 1.88688 8.09756 4.20014 8.09756 6.75581Z" fill="#6B7280"/>
<path d="M30.0176 25.3778V5.07031H38.9093C39.8463 5.07031 40.6972 5.16592 41.4621 5.35714C42.2461 5.52924 42.9249 5.81607 43.4986 6.21763C44.0722 6.61919 44.512 7.1546 44.818 7.82387C45.143 8.49314 45.3056 9.34407 45.3056 10.3767C45.3056 11.218 45.1144 12.002 44.7319 12.7287C44.3495 13.4553 43.7854 14.0098 43.0396 14.3923C44.034 14.7173 44.818 15.2814 45.3916 16.0846C45.9653 16.8686 46.2521 17.9107 46.2521 19.211C46.2521 20.3774 46.0322 21.3622 45.5924 22.1653C45.1526 22.9493 44.5503 23.5804 43.7854 24.0584C43.0205 24.5365 42.1313 24.8807 41.1179 25.091C40.1044 25.2822 39.024 25.3778 37.8767 25.3778H30.0176ZM34.1192 21.5917H38.3643C38.8806 21.5917 39.3587 21.5534 39.7985 21.4769C40.2574 21.4005 40.6589 21.2762 41.0031 21.1041C41.3473 20.9128 41.615 20.6547 41.8063 20.3296C42.0166 20.0046 42.1218 19.603 42.1218 19.1249C42.1218 18.6851 42.0357 18.3218 41.8636 18.035C41.7107 17.729 41.4812 17.4805 41.1752 17.2892C40.8884 17.098 40.5442 16.9642 40.1426 16.8877C39.7602 16.8112 39.33 16.7729 38.8519 16.7729H34.1192V21.5917ZM34.1192 13.3597H37.8767C38.393 13.3597 38.8615 13.3119 39.2822 13.2163C39.7028 13.1207 40.0566 12.9677 40.3434 12.7573C40.6303 12.547 40.8502 12.2888 41.0031 11.9829C41.1561 11.6578 41.2326 11.2849 41.2326 10.8643C41.2517 10.2906 41.1274 9.86992 40.8597 9.60222C40.592 9.31539 40.2287 9.12417 39.7698 9.02856C39.3108 8.91382 38.7946 8.85646 38.2209 8.85646H34.1192V13.3597ZM54.5918 25.5786C52.3737 25.5786 50.6623 25.0145 49.4576 23.8863C48.272 22.739 47.6792 21.018 47.6792 18.7234V10.2619H51.6948V18.4366C51.6948 19.1249 51.7905 19.7368 51.9817 20.2723C52.192 20.7886 52.5075 21.1997 52.9282 21.5056C53.368 21.8116 53.9321 21.9646 54.6205 21.9646C55.3663 21.9646 55.9399 21.802 56.3415 21.4769C56.743 21.1519 57.0203 20.7216 57.1733 20.1862C57.3263 19.6317 57.4028 19.0485 57.4028 18.4366V10.2619H61.3897V18.7234C61.3897 21.1136 60.7873 22.8537 59.5827 23.9437C58.3971 25.0336 56.7335 25.5786 54.5918 25.5786ZM70.2228 25.5786C68.0047 25.5786 66.2933 25.0145 65.0886 23.8863C63.903 22.739 63.3103 21.018 63.3103 18.7234V10.2619H67.3259V18.4366C67.3259 19.1249 67.4215 19.7368 67.6127 20.2723C67.823 20.7886 68.1386 21.1997 68.5592 21.5056C68.999 21.8116 69.5631 21.9646 70.2515 21.9646C70.9973 21.9646 71.5709 21.802 71.9725 21.4769C72.3741 21.1519 72.6513 20.7216 72.8043 20.1862C72.9573 19.6317 73.0338 19.0485 73.0338 18.4366V10.2619H77.0207V18.7234C77.0207 21.1136 76.4184 22.8537 75.2137 23.9437C74.0281 25.0336 72.3645 25.5786 70.2228 25.5786ZM85.768 25.5786C84.2191 25.5786 82.8902 25.2631 81.7811 24.6321C80.6911 24.001 79.8593 23.1119 79.2857 21.9646C78.712 20.7981 78.4252 19.4309 78.4252 17.8629C78.4252 16.2758 78.7216 14.899 79.3144 13.7326C79.9071 12.547 80.7581 11.6291 81.8671 10.979C82.9953 10.3288 84.353 10.0038 85.9401 10.0038C87.1639 10.0038 88.2539 10.2237 89.21 10.6635C90.1661 11.1033 90.9309 11.7343 91.5046 12.5566C92.0974 13.3788 92.4416 14.3923 92.5372 15.5969H88.6076C88.4355 14.9277 88.1009 14.4401 87.6037 14.1341C87.1257 13.8282 86.552 13.6752 85.8827 13.6752C85.0223 13.6752 84.3339 13.8855 83.8176 14.3062C83.3204 14.7269 82.9571 15.2623 82.7276 15.9125C82.5173 16.5626 82.4121 17.2128 82.4121 17.8629C82.4121 18.5704 82.5268 19.2397 82.7563 19.8707C82.9858 20.4826 83.3491 20.9893 83.8463 21.3909C84.3626 21.7733 85.0318 21.9646 85.8541 21.9646C86.5425 21.9646 87.1448 21.8116 87.6611 21.5056C88.1774 21.1806 88.512 20.6834 88.665 20.0141H92.6806C92.585 21.257 92.2121 22.2896 91.562 23.1119C90.9118 23.9341 90.08 24.5556 89.0666 24.9763C88.0722 25.3778 86.9727 25.5786 85.768 25.5786ZM93.9577 25.3778V5.07031H97.9733V25.3778H93.9577ZM106.692 32.3478C105.526 32.3478 104.388 32.1948 103.279 31.8888C102.17 31.5829 101.128 31.0666 100.152 30.34L101.501 27.1275C102.112 27.5864 102.81 27.9497 103.594 28.2174C104.378 28.5043 105.248 28.6477 106.205 28.6477C107.677 28.6477 108.767 28.3035 109.474 27.6151C110.201 26.9267 110.564 25.9324 110.564 24.6321V23.8289C110.239 24.2688 109.828 24.6225 109.331 24.8902C108.853 25.1388 108.337 25.3205 107.782 25.4352C107.228 25.5499 106.673 25.6073 106.118 25.6073C104.665 25.6073 103.499 25.3013 102.619 24.6894C101.74 24.0775 101.099 23.2457 100.697 22.194C100.315 21.1232 100.124 19.9089 100.124 18.5513V10.2619H104.139V17.7195C104.139 18.2167 104.168 18.7138 104.225 19.211C104.283 19.7082 104.417 20.1671 104.627 20.5878C104.837 21.0085 105.153 21.3527 105.573 21.6204C105.994 21.8689 106.558 21.9932 107.266 21.9932C108.184 21.9932 108.872 21.7733 109.331 21.3335C109.79 20.8746 110.096 20.3009 110.249 19.6126C110.421 18.9242 110.507 18.2071 110.507 17.4613V10.2619H114.523V23.1979C114.523 24.5747 114.389 25.8272 114.121 26.9554C113.872 28.0836 113.442 29.0492 112.83 29.8524C112.237 30.6555 111.434 31.2674 110.421 31.6881C109.427 32.1279 108.184 32.3478 106.692 32.3478Z" fill="#6B7280"/>
</g>
<defs>
<clipPath id="clip0_304_1928">
<rect width="116.293" height="32" fill="white" transform="translate(0 0.5)"/>
</clipPath>
</defs>
</svg>
