<svg width="117" height="32" viewBox="0 0 117 32" fill="none" xmlns="http://www.w3.org/2000/svg">
<path d="M14.0005 3.38905C14.0841 3.16325 14.4034 3.16325 14.487 3.38905C15.0518 4.91537 16.2552 6.11879 17.7815 6.68359C18.0073 6.76714 18.0073 7.08651 17.7815 7.17007C16.2552 7.73487 15.0518 8.93828 14.487 10.4646C14.4034 10.6904 14.0841 10.6904 14.0005 10.4646C13.4357 8.93828 12.2323 7.73487 10.706 7.17007C10.4802 7.08651 10.4802 6.76714 10.706 6.68359C12.2323 6.11879 13.4357 4.91537 14.0005 3.38905Z" fill="white"/>
<path d="M18.4392 22.7317C18.4392 18.3888 14.9792 14.8445 10.6344 14.6432C10.4191 14.6332 10.244 14.8089 10.244 15.0244V30.439C10.244 30.6546 10.4191 30.8302 10.6344 30.8203C14.9792 30.6189 18.4392 27.0745 18.4392 22.7317Z" fill="#1FC468"/>
<path d="M8.09756 6.25581V30.7317H1.29268C0.683105 30.7317 0 30 0 29.439V1.17073C0 0.524154 0.524154 0 1.17073 0H11.876C12.081 0 12.1396 0.280379 11.9519 0.362527C9.61048 1.38688 8.09756 3.70014 8.09756 6.25581Z" fill="#1FC468"/>
<path d="M30.0171 24.878V4.57053H38.9088C39.8458 4.57053 40.6967 4.66614 41.4616 4.85736C42.2456 5.02946 42.9244 5.31629 43.4981 5.71785C44.0717 6.11941 44.5115 6.65483 44.8175 7.32409C45.1426 7.99336 45.3051 8.84429 45.3051 9.87687C45.3051 10.7182 45.1139 11.5022 44.7314 12.2289C44.349 12.9555 43.7849 13.51 43.0391 13.8925C44.0335 14.2176 44.8175 14.7817 45.3911 15.5848C45.9648 16.3688 46.2516 17.4109 46.2516 18.7112C46.2516 19.8777 46.0317 20.8624 45.5919 21.6656C45.1521 22.4496 44.5498 23.0806 43.7849 23.5586C43.02 24.0367 42.1308 24.3809 41.1174 24.5912C40.1039 24.7824 39.0235 24.878 37.8762 24.878H30.0171ZM34.1187 21.0919H38.3638C38.8801 21.0919 39.3582 21.0537 39.798 20.9772C40.2569 20.9007 40.6585 20.7764 41.0027 20.6043C41.3468 20.4131 41.6146 20.1549 41.8058 19.8298C42.0161 19.5048 42.1213 19.1032 42.1213 18.6252C42.1213 18.1854 42.0352 17.822 41.8631 17.5352C41.7102 17.2293 41.4807 16.9807 41.1747 16.7895C40.8879 16.5982 40.5437 16.4644 40.1422 16.3879C39.7597 16.3114 39.3295 16.2732 38.8514 16.2732H34.1187V21.0919ZM34.1187 12.8599H37.8762C38.3925 12.8599 38.861 12.8121 39.2817 12.7165C39.7024 12.6209 40.0561 12.4679 40.3429 12.2576C40.6298 12.0472 40.8497 11.7891 41.0027 11.4831C41.1556 11.158 41.2321 10.7852 41.2321 10.3645C41.2512 9.79083 41.1269 9.37014 40.8592 9.10244C40.5915 8.81561 40.2282 8.62439 39.7693 8.52878C39.3104 8.41405 38.7941 8.35668 38.2204 8.35668H34.1187V12.8599ZM54.5913 25.0788C52.3732 25.0788 50.6618 24.5147 49.4571 23.3865C48.2715 22.2392 47.6787 20.5182 47.6787 18.2236V9.76214H51.6944V17.9368C51.6944 18.6252 51.79 19.2371 51.9812 19.7725C52.1915 20.2888 52.507 20.6999 52.9277 21.0058C53.3675 21.3118 53.9316 21.4648 54.62 21.4648C55.3658 21.4648 55.9394 21.3022 56.341 20.9772C56.7426 20.6521 57.0198 20.2218 57.1728 19.6864C57.3258 19.1319 57.4023 18.5487 57.4023 17.9368V9.76214H61.3892V18.2236C61.3892 20.6138 60.7868 22.3539 59.5822 23.4439C58.3966 24.5338 56.733 25.0788 54.5913 25.0788ZM70.2224 25.0788C68.0042 25.0788 66.2928 24.5147 65.0881 23.3865C63.9025 22.2392 63.3098 20.5182 63.3098 18.2236V9.76214H67.3254V17.9368C67.3254 18.6252 67.421 19.2371 67.6122 19.7725C67.8226 20.2888 68.1381 20.6999 68.5588 21.0058C68.9986 21.3118 69.5627 21.4648 70.251 21.4648C70.9968 21.4648 71.5705 21.3022 71.972 20.9772C72.3736 20.6521 72.6508 20.2218 72.8038 19.6864C72.9568 19.1319 73.0333 18.5487 73.0333 17.9368V9.76214H77.0202V18.2236C77.0202 20.6138 76.4179 22.3539 75.2132 23.4439C74.0276 24.5338 72.364 25.0788 70.2224 25.0788ZM85.7675 25.0788C84.2187 25.0788 82.8897 24.7633 81.7806 24.1323C80.6907 23.5013 79.8588 22.6121 79.2852 21.4648C78.7115 20.2983 78.4247 18.9311 78.4247 17.3631C78.4247 15.776 78.7211 14.3992 79.3139 13.2328C79.9067 12.0472 80.7576 11.1294 81.8667 10.4792C82.9949 9.82907 84.3525 9.504 85.9396 9.504C87.1634 9.504 88.2534 9.7239 89.2095 10.1637C90.1656 10.6035 90.9305 11.2345 91.5041 12.0568C92.0969 12.879 92.4411 13.8925 92.5367 15.0972H88.6071C88.435 14.4279 88.1004 13.9403 87.6032 13.6343C87.1252 13.3284 86.5515 13.1754 85.8823 13.1754C85.0218 13.1754 84.3334 13.3858 83.8171 13.8064C83.3199 14.2271 82.9566 14.7625 82.7271 15.4127C82.5168 16.0628 82.4116 16.713 82.4116 17.3631C82.4116 18.0706 82.5264 18.7399 82.7558 19.3709C82.9853 19.9828 83.3486 20.4896 83.8458 20.8911C84.3621 21.2736 85.0313 21.4648 85.8536 21.4648C86.542 21.4648 87.1443 21.3118 87.6606 21.0058C88.1769 20.6808 88.5115 20.1836 88.6645 19.5143H92.6801C92.5845 20.7573 92.2116 21.7899 91.5615 22.6121C90.9113 23.4343 90.0795 24.0558 89.0661 24.4765C88.0717 24.878 86.9722 25.0788 85.7675 25.0788ZM93.9572 24.878V4.57053H97.9728V24.878H93.9572ZM106.692 31.848C105.525 31.848 104.387 31.695 103.278 31.3891C102.169 31.0831 101.127 30.5668 100.152 29.8402L101.5 26.6277C102.112 27.0866 102.81 27.4499 103.594 27.7177C104.378 28.0045 105.248 28.1479 106.204 28.1479C107.676 28.1479 108.766 27.8037 109.474 27.1153C110.201 26.4269 110.564 25.4326 110.564 24.1323V23.3292C110.239 23.769 109.828 24.1227 109.33 24.3904C108.852 24.639 108.336 24.8207 107.782 24.9354C107.227 25.0501 106.673 25.1075 106.118 25.1075C104.665 25.1075 103.498 24.8016 102.619 24.1897C101.739 23.5778 101.098 22.7459 100.697 21.6942C100.314 20.6234 100.123 19.4092 100.123 18.0515V9.76214H104.139V17.2197C104.139 17.7169 104.168 18.214 104.225 18.7112C104.282 19.2084 104.416 19.6673 104.626 20.088C104.837 20.5087 105.152 20.8529 105.573 21.1206C105.994 21.3692 106.558 21.4935 107.265 21.4935C108.183 21.4935 108.872 21.2736 109.33 20.8338C109.789 20.3748 110.095 19.8012 110.248 19.1128C110.42 18.4244 110.506 17.7073 110.506 16.9616V9.76214H114.522V22.6981C114.522 24.0749 114.388 25.3274 114.121 26.4556C113.872 27.5838 113.442 28.5495 112.83 29.3526C112.237 30.1557 111.434 30.7676 110.42 31.1883C109.426 31.6281 108.183 31.848 106.692 31.848Z" fill="white"/>
</svg>
