<svg width="192" height="222" viewBox="0 0 192 222" fill="none" xmlns="http://www.w3.org/2000/svg">
<g filter="url(#filter0_d_304_1818)">
<g clip-path="url(#clip0_304_1818)">
<mask id="path-1-inside-1_304_1818" fill="white">
<path d="M6.5 4.11001C6.5 3.54051 6.5 3.25576 6.61259 3.03903C6.70746 2.85638 6.85638 2.70746 7.03903 2.61259C7.25576 2.5 7.54051 2.5 8.11 2.5H172.62C177.176 2.5 179.454 2.5 181.188 3.40069C182.649 4.1597 183.84 5.35106 184.599 6.8122C185.5 8.54611 185.5 10.8241 185.5 15.38V224.5H6.5V4.11001Z"/>
</mask>
<path d="M6.5 4.11001C6.5 3.54051 6.5 3.25576 6.61259 3.03903C6.70746 2.85638 6.85638 2.70746 7.03903 2.61259C7.25576 2.5 7.54051 2.5 8.11 2.5H172.62C177.176 2.5 179.454 2.5 181.188 3.40069C182.649 4.1597 183.84 5.35106 184.599 6.8122C185.5 8.54611 185.5 10.8241 185.5 15.38V224.5H6.5V4.11001Z" fill="url(#paint0_linear_304_1818)"/>
<path d="M28.968 49.644C28.332 49.644 27.75 49.572 27.222 49.428C26.694 49.272 26.238 49.032 25.854 48.708C25.482 48.372 25.188 47.94 24.972 47.412C24.756 46.872 24.636 46.218 24.612 45.45H26.862C26.886 45.834 26.964 46.188 27.096 46.512C27.228 46.836 27.438 47.094 27.726 47.286C28.026 47.478 28.428 47.574 28.932 47.574C29.412 47.574 29.784 47.472 30.048 47.268C30.312 47.064 30.498 46.794 30.606 46.458C30.726 46.122 30.786 45.744 30.786 45.324V36.774H33.018V45.036C33.018 45.744 32.94 46.386 32.784 46.962C32.64 47.526 32.4 48.012 32.064 48.42C31.74 48.816 31.32 49.122 30.804 49.338C30.3 49.542 29.688 49.644 28.968 49.644ZM38.3491 49.626C37.9051 49.626 37.4851 49.566 37.0891 49.446C36.6931 49.326 36.3391 49.152 36.0271 48.924C35.7151 48.684 35.4631 48.39 35.2711 48.042C35.0911 47.682 35.0011 47.262 35.0011 46.782C35.0011 46.17 35.1211 45.672 35.3611 45.288C35.6011 44.892 35.9251 44.592 36.3331 44.388C36.7531 44.184 37.2271 44.046 37.7551 43.974C38.2831 43.89 38.8351 43.848 39.4111 43.848H41.2651C41.2651 43.428 41.1991 43.068 41.0671 42.768C40.9351 42.456 40.7251 42.21 40.4371 42.03C40.1611 41.85 39.8011 41.76 39.3571 41.76C39.0691 41.76 38.7991 41.796 38.5471 41.868C38.3071 41.928 38.0971 42.03 37.9171 42.174C37.7491 42.306 37.6291 42.48 37.5571 42.696H35.3071C35.3911 42.204 35.5591 41.784 35.8111 41.436C36.0751 41.076 36.3931 40.782 36.7651 40.554C37.1491 40.326 37.5691 40.158 38.0251 40.05C38.4811 39.93 38.9431 39.87 39.4111 39.87C40.7911 39.87 41.7931 40.266 42.4171 41.058C43.0531 41.85 43.3711 42.96 43.3711 44.388V49.5H41.4271L41.3731 48.276C41.0971 48.684 40.7671 48.984 40.3831 49.176C39.9991 49.368 39.6271 49.488 39.2671 49.536C38.9071 49.596 38.6011 49.626 38.3491 49.626ZM38.7811 47.844C39.2611 47.844 39.6871 47.754 40.0591 47.574C40.4311 47.394 40.7251 47.142 40.9411 46.818C41.1691 46.494 41.2831 46.122 41.2831 45.702V45.396H39.5551C39.2671 45.396 38.9791 45.408 38.6911 45.432C38.4151 45.444 38.1631 45.492 37.9351 45.576C37.7071 45.648 37.5211 45.762 37.3771 45.918C37.2451 46.074 37.1791 46.296 37.1791 46.584C37.1791 46.872 37.2511 47.106 37.3951 47.286C37.5511 47.466 37.7491 47.604 37.9891 47.7C38.2411 47.796 38.5051 47.844 38.7811 47.844ZM47.7717 49.5L44.3337 40.014H46.7637L49.2657 47.628L51.7497 40.014H54.1617L50.7237 49.5H47.7717ZM58.1722 49.626C57.7282 49.626 57.3082 49.566 56.9122 49.446C56.5162 49.326 56.1622 49.152 55.8502 48.924C55.5382 48.684 55.2862 48.39 55.0942 48.042C54.9142 47.682 54.8242 47.262 54.8242 46.782C54.8242 46.17 54.9442 45.672 55.1842 45.288C55.4242 44.892 55.7482 44.592 56.1562 44.388C56.5762 44.184 57.0502 44.046 57.5782 43.974C58.1062 43.89 58.6582 43.848 59.2342 43.848H61.0882C61.0882 43.428 61.0222 43.068 60.8902 42.768C60.7582 42.456 60.5482 42.21 60.2602 42.03C59.9842 41.85 59.6242 41.76 59.1802 41.76C58.8922 41.76 58.6222 41.796 58.3702 41.868C58.1302 41.928 57.9202 42.03 57.7402 42.174C57.5722 42.306 57.4522 42.48 57.3802 42.696H55.1302C55.2142 42.204 55.3822 41.784 55.6342 41.436C55.8982 41.076 56.2162 40.782 56.5882 40.554C56.9722 40.326 57.3922 40.158 57.8482 40.05C58.3042 39.93 58.7662 39.87 59.2342 39.87C60.6142 39.87 61.6162 40.266 62.2402 41.058C62.8762 41.85 63.1942 42.96 63.1942 44.388V49.5H61.2502L61.1962 48.276C60.9202 48.684 60.5902 48.984 60.2062 49.176C59.8222 49.368 59.4502 49.488 59.0902 49.536C58.7302 49.596 58.4242 49.626 58.1722 49.626ZM58.6042 47.844C59.0842 47.844 59.5102 47.754 59.8822 47.574C60.2542 47.394 60.5482 47.142 60.7642 46.818C60.9922 46.494 61.1062 46.122 61.1062 45.702V45.396H59.3782C59.0902 45.396 58.8022 45.408 58.5142 45.432C58.2382 45.444 57.9862 45.492 57.7582 45.576C57.5302 45.648 57.3442 45.762 57.2002 45.918C57.0682 46.074 57.0022 46.296 57.0022 46.584C57.0022 46.872 57.0742 47.106 57.2182 47.286C57.3742 47.466 57.5722 47.604 57.8122 47.7C58.0642 47.796 58.3282 47.844 58.6042 47.844ZM70.2767 49.644C69.4247 49.644 68.6207 49.518 67.8647 49.266C67.1207 49.002 66.4967 48.588 65.9927 48.024C65.4887 47.448 65.1587 46.698 65.0027 45.774H67.2887C67.4327 46.242 67.6607 46.608 67.9727 46.872C68.2967 47.136 68.6747 47.322 69.1067 47.43C69.5387 47.526 69.9767 47.574 70.4207 47.574C70.8167 47.574 71.1887 47.526 71.5367 47.43C71.8967 47.322 72.1907 47.148 72.4187 46.908C72.6587 46.668 72.7787 46.35 72.7787 45.954C72.7787 45.654 72.7127 45.414 72.5807 45.234C72.4607 45.042 72.2867 44.886 72.0587 44.766C71.8427 44.634 71.5787 44.532 71.2667 44.46C70.9667 44.364 70.6427 44.28 70.2947 44.208C69.9467 44.136 69.6047 44.058 69.2687 43.974C68.9327 43.89 68.6147 43.782 68.3147 43.65C67.9307 43.518 67.5587 43.368 67.1987 43.2C66.8507 43.02 66.5447 42.804 66.2807 42.552C66.0287 42.3 65.8247 41.988 65.6687 41.616C65.5127 41.244 65.4347 40.8 65.4347 40.284C65.4347 39.696 65.5307 39.192 65.7227 38.772C65.9267 38.34 66.1907 37.986 66.5147 37.71C66.8507 37.434 67.2227 37.218 67.6307 37.062C68.0507 36.906 68.4827 36.792 68.9267 36.72C69.3827 36.648 69.8147 36.612 70.2227 36.612C71.0147 36.612 71.7347 36.744 72.3827 37.008C73.0427 37.272 73.5827 37.68 74.0027 38.232C74.4227 38.784 74.6627 39.492 74.7227 40.356H72.5447C72.4967 39.948 72.3527 39.624 72.1127 39.384C71.8727 39.132 71.5727 38.952 71.2127 38.844C70.8527 38.724 70.4627 38.664 70.0427 38.664C69.7547 38.664 69.4667 38.688 69.1787 38.736C68.9027 38.784 68.6507 38.868 68.4227 38.988C68.2067 39.108 68.0267 39.27 67.8827 39.474C67.7507 39.666 67.6847 39.912 67.6847 40.212C67.6847 40.476 67.7507 40.71 67.8827 40.914C68.0147 41.106 68.1947 41.268 68.4227 41.4C68.6627 41.532 68.9447 41.652 69.2687 41.76C69.6887 41.928 70.1447 42.054 70.6367 42.138C71.1407 42.222 71.6147 42.336 72.0587 42.48C72.4907 42.6 72.8867 42.75 73.2467 42.93C73.6187 43.098 73.9367 43.308 74.2007 43.56C74.4647 43.8 74.6687 44.1 74.8127 44.46C74.9687 44.808 75.0467 45.228 75.0467 45.72C75.0467 46.44 74.9147 47.052 74.6507 47.556C74.3987 48.048 74.0447 48.45 73.5887 48.762C73.1447 49.074 72.6347 49.302 72.0587 49.446C71.4947 49.578 70.9007 49.644 70.2767 49.644ZM81.0808 49.626C80.0968 49.626 79.2688 49.428 78.5968 49.032C77.9248 48.624 77.4148 48.054 77.0668 47.322C76.7188 46.59 76.5448 45.744 76.5448 44.784C76.5448 43.824 76.7248 42.978 77.0848 42.246C77.4448 41.502 77.9728 40.92 78.6688 40.5C79.3648 40.08 80.2108 39.87 81.2068 39.87C81.9388 39.87 82.5868 39.996 83.1508 40.248C83.7268 40.5 84.1888 40.872 84.5368 41.364C84.8968 41.844 85.1248 42.444 85.2208 43.164H83.0608C82.9168 42.708 82.6768 42.378 82.3408 42.174C82.0168 41.958 81.6268 41.85 81.1708 41.85C80.5588 41.85 80.0728 42 79.7128 42.3C79.3648 42.588 79.1128 42.954 78.9568 43.398C78.8008 43.842 78.7228 44.304 78.7228 44.784C78.7228 45.288 78.8068 45.762 78.9748 46.206C79.1428 46.638 79.4008 46.986 79.7488 47.25C80.1088 47.514 80.5708 47.646 81.1348 47.646C81.5908 47.646 81.9988 47.544 82.3588 47.34C82.7308 47.136 82.9708 46.806 83.0788 46.35H85.3108C85.2268 47.082 84.9808 47.694 84.5728 48.186C84.1768 48.666 83.6728 49.026 83.0608 49.266C82.4488 49.506 81.7888 49.626 81.0808 49.626ZM86.8515 49.5V40.014H88.8495L88.9755 41.256C89.2155 40.896 89.4855 40.62 89.7855 40.428C90.0975 40.224 90.4275 40.08 90.7755 39.996C91.1355 39.912 91.4955 39.87 91.8555 39.87C91.9875 39.87 92.1075 39.87 92.2155 39.87C92.3355 39.87 92.4315 39.876 92.5035 39.888V41.976H91.9275C91.3035 41.976 90.7755 42.096 90.3435 42.336C89.9115 42.576 89.5875 42.918 89.3715 43.362C89.1555 43.806 89.0475 44.352 89.0475 45V49.5H86.8515ZM93.6869 49.5V40.014H95.8829V49.5H93.6869ZM94.7849 38.916C94.3649 38.916 94.0289 38.79 93.7769 38.538C93.5249 38.286 93.3989 37.956 93.3989 37.548C93.3989 37.152 93.5309 36.828 93.7949 36.576C94.0589 36.312 94.3889 36.18 94.7849 36.18C95.1689 36.18 95.4989 36.306 95.7749 36.558C96.0509 36.81 96.1889 37.14 96.1889 37.548C96.1889 37.956 96.0569 38.286 95.7929 38.538C95.5289 38.79 95.1929 38.916 94.7849 38.916ZM97.9031 52.992V40.014H99.9551L100.063 41.292C100.435 40.8 100.879 40.44 101.395 40.212C101.911 39.984 102.481 39.87 103.105 39.87C104.041 39.87 104.815 40.086 105.427 40.518C106.039 40.95 106.495 41.532 106.795 42.264C107.095 42.996 107.245 43.824 107.245 44.748C107.245 45.672 107.089 46.506 106.777 47.25C106.465 47.982 105.991 48.564 105.355 48.996C104.731 49.416 103.945 49.626 102.997 49.626C102.553 49.626 102.145 49.578 101.773 49.482C101.413 49.386 101.089 49.248 100.801 49.068C100.525 48.888 100.291 48.684 100.099 48.456V52.992H97.9031ZM102.655 47.646C103.267 47.646 103.747 47.514 104.095 47.25C104.443 46.974 104.695 46.62 104.851 46.188C105.007 45.744 105.085 45.276 105.085 44.784C105.085 44.268 105.001 43.788 104.833 43.344C104.677 42.9 104.419 42.54 104.059 42.264C103.699 41.988 103.219 41.85 102.619 41.85C102.067 41.85 101.599 41.988 101.215 42.264C100.843 42.528 100.561 42.882 100.369 43.326C100.177 43.77 100.081 44.25 100.081 44.766C100.081 45.294 100.171 45.78 100.351 46.224C100.531 46.656 100.813 47.004 101.197 47.268C101.581 47.52 102.067 47.646 102.655 47.646ZM112.684 49.608C111.64 49.608 110.878 49.32 110.398 48.744C109.918 48.168 109.678 47.37 109.678 46.35V41.958H108.22V40.014H109.678V37.35H111.874V40.014H114.754V41.958H111.874V45.936C111.874 46.248 111.91 46.53 111.982 46.782C112.054 47.034 112.186 47.232 112.378 47.376C112.57 47.52 112.834 47.598 113.17 47.61C113.458 47.61 113.704 47.562 113.908 47.466C114.112 47.37 114.28 47.262 114.412 47.142L115.15 48.816C114.922 49.008 114.664 49.164 114.376 49.284C114.1 49.404 113.818 49.488 113.53 49.536C113.242 49.584 112.96 49.608 112.684 49.608ZM28.932 71.626C27.972 71.626 27.18 71.41 26.556 70.978C25.932 70.534 25.464 69.946 25.152 69.214C24.852 68.482 24.702 67.666 24.702 66.766C24.702 65.83 24.864 64.996 25.188 64.264C25.512 63.52 25.998 62.938 26.646 62.518C27.294 62.086 28.104 61.87 29.076 61.87C29.436 61.87 29.784 61.912 30.12 61.996C30.468 62.068 30.792 62.188 31.092 62.356C31.404 62.512 31.662 62.722 31.866 62.986V58.774H34.062V71.5H31.938L31.902 70.312C31.674 70.612 31.404 70.858 31.092 71.05C30.792 71.242 30.456 71.386 30.084 71.482C29.712 71.578 29.328 71.626 28.932 71.626ZM29.346 69.646C29.922 69.646 30.396 69.514 30.768 69.25C31.14 68.974 31.416 68.614 31.596 68.17C31.788 67.714 31.884 67.234 31.884 66.73C31.884 66.202 31.788 65.722 31.596 65.29C31.416 64.858 31.14 64.51 30.768 64.246C30.396 63.982 29.922 63.85 29.346 63.85C28.734 63.85 28.248 63.988 27.888 64.264C27.54 64.54 27.282 64.906 27.114 65.362C26.958 65.806 26.88 66.286 26.88 66.802C26.88 67.186 26.922 67.552 27.006 67.9C27.102 68.236 27.246 68.536 27.438 68.8C27.63 69.064 27.882 69.274 28.194 69.43C28.506 69.574 28.89 69.646 29.346 69.646ZM40.329 71.626C39.345 71.626 38.505 71.422 37.809 71.014C37.125 70.606 36.603 70.042 36.243 69.322C35.895 68.59 35.721 67.744 35.721 66.784C35.721 65.824 35.901 64.978 36.261 64.246C36.633 63.502 37.161 62.92 37.845 62.5C38.541 62.08 39.375 61.87 40.347 61.87C41.067 61.87 41.697 62.002 42.237 62.266C42.777 62.518 43.227 62.866 43.587 63.31C43.959 63.754 44.235 64.258 44.415 64.822C44.595 65.386 44.679 65.98 44.667 66.604C44.655 66.748 44.643 66.892 44.631 67.036C44.619 67.168 44.601 67.312 44.577 67.468H37.917C37.953 67.888 38.061 68.272 38.241 68.62C38.433 68.968 38.697 69.244 39.033 69.448C39.381 69.652 39.813 69.754 40.329 69.754C40.629 69.754 40.917 69.718 41.193 69.646C41.469 69.562 41.709 69.442 41.913 69.286C42.129 69.13 42.273 68.932 42.345 68.692H44.541C44.385 69.376 44.097 69.934 43.677 70.366C43.257 70.798 42.753 71.116 42.165 71.32C41.589 71.524 40.977 71.626 40.329 71.626ZM37.953 65.83H42.525C42.525 65.434 42.435 65.074 42.255 64.75C42.075 64.426 41.817 64.174 41.481 63.994C41.157 63.802 40.761 63.706 40.293 63.706C39.789 63.706 39.369 63.808 39.033 64.012C38.697 64.216 38.439 64.48 38.259 64.804C38.079 65.128 37.977 65.47 37.953 65.83ZM49.9449 71.626C49.4889 71.626 49.0329 71.578 48.5769 71.482C48.1329 71.386 47.7129 71.23 47.3169 71.014C46.9209 70.786 46.5909 70.48 46.3269 70.096C46.0629 69.712 45.8889 69.232 45.8049 68.656H48.0189C48.1149 68.92 48.2649 69.136 48.4689 69.304C48.6849 69.46 48.9309 69.58 49.2069 69.664C49.4949 69.736 49.7769 69.772 50.0529 69.772C50.2209 69.772 50.4009 69.76 50.5929 69.736C50.7969 69.712 50.9829 69.664 51.1509 69.592C51.3309 69.52 51.4749 69.418 51.5829 69.286C51.6909 69.142 51.7449 68.956 51.7449 68.728C51.7449 68.512 51.6849 68.344 51.5649 68.224C51.4449 68.092 51.2829 67.99 51.0789 67.918C50.8749 67.834 50.6289 67.768 50.3409 67.72C49.8249 67.612 49.2729 67.498 48.6849 67.378C48.0969 67.246 47.5869 67.042 47.1549 66.766C46.9749 66.658 46.8189 66.532 46.6869 66.388C46.5549 66.244 46.4409 66.088 46.3449 65.92C46.2609 65.74 46.1949 65.548 46.1469 65.344C46.1109 65.14 46.0929 64.918 46.0929 64.678C46.0929 64.174 46.1949 63.748 46.3989 63.4C46.6149 63.04 46.8969 62.752 47.2449 62.536C47.6049 62.308 48.0129 62.14 48.4689 62.032C48.9249 61.924 49.3929 61.87 49.8729 61.87C50.5209 61.87 51.1089 61.972 51.6369 62.176C52.1649 62.38 52.6029 62.692 52.9509 63.112C53.3109 63.532 53.5269 64.066 53.5989 64.714H51.5109C51.4509 64.414 51.2649 64.174 50.9529 63.994C50.6529 63.814 50.2689 63.724 49.8009 63.724C49.6329 63.724 49.4589 63.742 49.2789 63.778C49.0989 63.802 48.9249 63.85 48.7569 63.922C48.6009 63.982 48.4689 64.078 48.3609 64.21C48.2649 64.342 48.2169 64.504 48.2169 64.696C48.2169 64.876 48.2589 65.032 48.3429 65.164C48.4389 65.296 48.5769 65.41 48.7569 65.506C48.9489 65.59 49.1709 65.662 49.4229 65.722C49.8309 65.806 50.2569 65.89 50.7009 65.974C51.1449 66.058 51.5289 66.142 51.8529 66.226C52.2369 66.334 52.5849 66.49 52.8969 66.694C53.2089 66.886 53.4489 67.144 53.6169 67.468C53.7969 67.78 53.8869 68.182 53.8869 68.674C53.8869 69.25 53.7669 69.73 53.5269 70.114C53.2989 70.498 52.9929 70.798 52.6089 71.014C52.2249 71.23 51.7989 71.386 51.3309 71.482C50.8629 71.578 50.4009 71.626 49.9449 71.626ZM59.2643 71.626C58.3043 71.626 57.5123 71.41 56.8883 70.978C56.2643 70.534 55.7963 69.946 55.4843 69.214C55.1843 68.482 55.0343 67.666 55.0343 66.766C55.0343 65.83 55.1963 64.996 55.5203 64.264C55.8443 63.52 56.3303 62.938 56.9783 62.518C57.6263 62.086 58.4363 61.87 59.4083 61.87C59.7683 61.87 60.1163 61.912 60.4523 61.996C60.8003 62.068 61.1243 62.188 61.4243 62.356C61.7363 62.512 61.9943 62.722 62.1983 62.986V58.774H64.3943V71.5H62.2703L62.2343 70.312C62.0063 70.612 61.7363 70.858 61.4243 71.05C61.1243 71.242 60.7883 71.386 60.4163 71.482C60.0443 71.578 59.6603 71.626 59.2643 71.626ZM59.6783 69.646C60.2543 69.646 60.7283 69.514 61.1003 69.25C61.4723 68.974 61.7483 68.614 61.9283 68.17C62.1203 67.714 62.2163 67.234 62.2163 66.73C62.2163 66.202 62.1203 65.722 61.9283 65.29C61.7483 64.858 61.4723 64.51 61.1003 64.246C60.7283 63.982 60.2543 63.85 59.6783 63.85C59.0663 63.85 58.5803 63.988 58.2203 64.264C57.8723 64.54 57.6143 64.906 57.4463 65.362C57.2903 65.806 57.2123 66.286 57.2123 66.802C57.2123 67.186 57.2543 67.552 57.3383 67.9C57.4343 68.236 57.5783 68.536 57.7703 68.8C57.9623 69.064 58.2143 69.274 58.5263 69.43C58.8383 69.574 59.2223 69.646 59.6783 69.646ZM70.6612 71.626C69.6772 71.626 68.8372 71.422 68.1412 71.014C67.4572 70.606 66.9352 70.042 66.5752 69.322C66.2272 68.59 66.0532 67.744 66.0532 66.784C66.0532 65.824 66.2332 64.978 66.5932 64.246C66.9652 63.502 67.4932 62.92 68.1772 62.5C68.8732 62.08 69.7072 61.87 70.6792 61.87C71.3992 61.87 72.0292 62.002 72.5692 62.266C73.1092 62.518 73.5592 62.866 73.9192 63.31C74.2912 63.754 74.5672 64.258 74.7472 64.822C74.9272 65.386 75.0112 65.98 74.9992 66.604C74.9872 66.748 74.9752 66.892 74.9632 67.036C74.9512 67.168 74.9332 67.312 74.9092 67.468H68.2492C68.2852 67.888 68.3932 68.272 68.5732 68.62C68.7652 68.968 69.0292 69.244 69.3652 69.448C69.7132 69.652 70.1452 69.754 70.6612 69.754C70.9612 69.754 71.2492 69.718 71.5252 69.646C71.8012 69.562 72.0412 69.442 72.2452 69.286C72.4612 69.13 72.6052 68.932 72.6772 68.692H74.8732C74.7172 69.376 74.4292 69.934 74.0092 70.366C73.5892 70.798 73.0852 71.116 72.4972 71.32C71.9212 71.524 71.3092 71.626 70.6612 71.626ZM68.2852 65.83H72.8572C72.8572 65.434 72.7672 65.074 72.5872 64.75C72.4072 64.426 72.1492 64.174 71.8132 63.994C71.4892 63.802 71.0932 63.706 70.6252 63.706C70.1212 63.706 69.7012 63.808 69.3652 64.012C69.0292 64.216 68.7712 64.48 68.5912 64.804C68.4112 65.128 68.3092 65.47 68.2852 65.83ZM85.7189 71.626C84.7349 71.626 83.9069 71.428 83.2349 71.032C82.5629 70.624 82.0529 70.054 81.7049 69.322C81.3569 68.59 81.1829 67.744 81.1829 66.784C81.1829 65.824 81.3629 64.978 81.7229 64.246C82.0829 63.502 82.6109 62.92 83.3069 62.5C84.0029 62.08 84.8489 61.87 85.8449 61.87C86.5769 61.87 87.2249 61.996 87.7889 62.248C88.3649 62.5 88.8269 62.872 89.1749 63.364C89.5349 63.844 89.7629 64.444 89.8589 65.164H87.6989C87.5549 64.708 87.3149 64.378 86.9789 64.174C86.6549 63.958 86.2649 63.85 85.8089 63.85C85.1969 63.85 84.7109 64 84.3509 64.3C84.0029 64.588 83.7509 64.954 83.5949 65.398C83.4389 65.842 83.3609 66.304 83.3609 66.784C83.3609 67.288 83.4449 67.762 83.6129 68.206C83.7809 68.638 84.0389 68.986 84.3869 69.25C84.7469 69.514 85.2089 69.646 85.7729 69.646C86.2289 69.646 86.6369 69.544 86.9969 69.34C87.3689 69.136 87.6089 68.806 87.7169 68.35H89.9489C89.8649 69.082 89.6189 69.694 89.2109 70.186C88.8149 70.666 88.3109 71.026 87.6989 71.266C87.0869 71.506 86.4269 71.626 85.7189 71.626ZM95.7376 71.626C94.7536 71.626 93.9136 71.422 93.2176 71.014C92.5336 70.606 92.0116 70.042 91.6516 69.322C91.3036 68.59 91.1296 67.744 91.1296 66.784C91.1296 65.824 91.3096 64.978 91.6696 64.246C92.0416 63.502 92.5696 62.92 93.2536 62.5C93.9496 62.08 94.7836 61.87 95.7556 61.87C96.4756 61.87 97.1056 62.002 97.6456 62.266C98.1856 62.518 98.6356 62.866 98.9956 63.31C99.3676 63.754 99.6436 64.258 99.8236 64.822C100.004 65.386 100.088 65.98 100.076 66.604C100.064 66.748 100.052 66.892 100.04 67.036C100.028 67.168 100.01 67.312 99.9856 67.468H93.3256C93.3616 67.888 93.4696 68.272 93.6496 68.62C93.8416 68.968 94.1056 69.244 94.4416 69.448C94.7896 69.652 95.2216 69.754 95.7376 69.754C96.0376 69.754 96.3256 69.718 96.6016 69.646C96.8776 69.562 97.1176 69.442 97.3216 69.286C97.5376 69.13 97.6816 68.932 97.7536 68.692H99.9496C99.7936 69.376 99.5056 69.934 99.0856 70.366C98.6656 70.798 98.1616 71.116 97.5736 71.32C96.9976 71.524 96.3856 71.626 95.7376 71.626ZM93.3616 65.83H97.9336C97.9336 65.434 97.8436 65.074 97.6636 64.75C97.4836 64.426 97.2256 64.174 96.8896 63.994C96.5656 63.802 96.1696 63.706 95.7016 63.706C95.1976 63.706 94.7776 63.808 94.4416 64.012C94.1056 64.216 93.8476 64.48 93.6676 64.804C93.4876 65.128 93.3856 65.47 93.3616 65.83ZM101.718 71.5V62.014H103.716L103.842 63.256C104.082 62.896 104.352 62.62 104.652 62.428C104.964 62.224 105.294 62.08 105.642 61.996C106.002 61.912 106.362 61.87 106.722 61.87C106.854 61.87 106.974 61.87 107.082 61.87C107.202 61.87 107.298 61.876 107.37 61.888V63.976H106.794C106.17 63.976 105.642 64.096 105.21 64.336C104.778 64.576 104.454 64.918 104.238 65.362C104.022 65.806 103.914 66.352 103.914 67V71.5H101.718ZM112.715 71.626C111.743 71.626 110.903 71.428 110.195 71.032C109.499 70.636 108.959 70.072 108.575 69.34C108.203 68.608 108.017 67.75 108.017 66.766C108.017 65.77 108.209 64.912 108.593 64.192C108.977 63.46 109.517 62.89 110.213 62.482C110.909 62.074 111.743 61.87 112.715 61.87C113.675 61.87 114.503 62.074 115.199 62.482C115.895 62.89 116.429 63.466 116.801 64.21C117.173 64.942 117.359 65.806 117.359 66.802C117.359 67.774 117.173 68.626 116.801 69.358C116.441 70.078 115.913 70.636 115.217 71.032C114.521 71.428 113.687 71.626 112.715 71.626ZM112.697 69.628C113.297 69.628 113.777 69.496 114.137 69.232C114.509 68.968 114.779 68.62 114.947 68.188C115.115 67.756 115.199 67.288 115.199 66.784C115.199 66.28 115.115 65.806 114.947 65.362C114.779 64.918 114.509 64.564 114.137 64.3C113.777 64.024 113.297 63.886 112.697 63.886C112.097 63.886 111.611 64.024 111.239 64.3C110.867 64.564 110.597 64.918 110.429 65.362C110.261 65.794 110.177 66.268 110.177 66.784C110.177 67.288 110.261 67.762 110.429 68.206C110.609 68.638 110.879 68.986 111.239 69.25C111.611 69.502 112.097 69.628 112.697 69.628Z" fill="black"/>
<rect x="7" y="157.5" width="179" height="67" fill="#FDFFFD"/>
<path d="M40.8535 202.596C39.9735 202.596 39.2375 202.412 38.6455 202.044C38.0615 201.676 37.6215 201.168 37.3255 200.52C37.0295 199.864 36.8815 199.116 36.8815 198.276C36.8815 197.644 36.9615 197.064 37.1215 196.536C37.2895 196 37.5375 195.536 37.8655 195.144C38.1935 194.752 38.6015 194.452 39.0895 194.244C39.5855 194.028 40.1575 193.92 40.8055 193.92C41.4375 193.92 41.9935 194.02 42.4735 194.22C42.9535 194.412 43.3495 194.692 43.6615 195.06C43.9815 195.428 44.1975 195.872 44.3095 196.392H42.9655C42.8935 196.112 42.7575 195.876 42.5575 195.684C42.3655 195.492 42.1215 195.344 41.8255 195.24C41.5375 195.136 41.2095 195.084 40.8415 195.084C40.3615 195.084 39.9535 195.168 39.6175 195.336C39.2815 195.504 39.0055 195.736 38.7895 196.032C38.5815 196.32 38.4295 196.656 38.3335 197.04C38.2375 197.424 38.1895 197.832 38.1895 198.264C38.1895 198.84 38.2815 199.368 38.4655 199.848C38.6495 200.328 38.9375 200.712 39.3295 201C39.7215 201.288 40.2335 201.432 40.8655 201.432C41.3535 201.432 41.7735 201.348 42.1255 201.18C42.4775 201.004 42.7535 200.756 42.9535 200.436C43.1535 200.108 43.2575 199.712 43.2655 199.248H40.6375V198.132H44.5135V198.756C44.5135 199.532 44.3695 200.208 44.0815 200.784C43.7935 201.36 43.3775 201.808 42.8335 202.128C42.2895 202.44 41.6295 202.596 40.8535 202.596ZM48.5771 202.572C47.9131 202.572 47.3571 202.436 46.9091 202.164C46.4611 201.892 46.1211 201.516 45.8891 201.036C45.6651 200.548 45.5531 199.988 45.5531 199.356C45.5531 198.716 45.6691 198.152 45.9011 197.664C46.1411 197.176 46.4851 196.792 46.9331 196.512C47.3891 196.232 47.9371 196.092 48.5771 196.092C49.0651 196.092 49.4891 196.184 49.8491 196.368C50.2091 196.544 50.5051 196.784 50.7371 197.088C50.9771 197.392 51.1531 197.732 51.2651 198.108C51.3771 198.476 51.4251 198.86 51.4091 199.26C51.4091 199.348 51.4051 199.432 51.3971 199.512C51.3891 199.592 51.3811 199.676 51.3731 199.764H46.8011C46.8251 200.084 46.9051 200.376 47.0411 200.64C47.1851 200.904 47.3851 201.116 47.6411 201.276C47.8971 201.428 48.2131 201.504 48.5891 201.504C48.7971 201.504 48.9971 201.48 49.1891 201.432C49.3891 201.376 49.5651 201.292 49.7171 201.18C49.8771 201.06 49.9891 200.908 50.0531 200.724H51.3011C51.1971 201.148 51.0091 201.5 50.7371 201.78C50.4731 202.052 50.1491 202.252 49.7651 202.38C49.3891 202.508 48.9931 202.572 48.5771 202.572ZM46.8251 198.78H50.1851C50.1771 198.468 50.1051 198.192 49.9691 197.952C49.8331 197.704 49.6451 197.512 49.4051 197.376C49.1651 197.232 48.8771 197.16 48.5411 197.16C48.1731 197.16 47.8651 197.236 47.6171 197.388C47.3771 197.54 47.1891 197.74 47.0531 197.988C46.9251 198.228 46.8491 198.492 46.8251 198.78ZM52.6837 202.5V196.176H53.8597L53.9197 197.064C54.0797 196.832 54.2717 196.648 54.4957 196.512C54.7197 196.368 54.9597 196.264 55.2157 196.2C55.4717 196.128 55.7197 196.092 55.9597 196.092C56.5677 196.092 57.0437 196.224 57.3877 196.488C57.7397 196.744 57.9877 197.092 58.1317 197.532C58.2837 197.964 58.3597 198.456 58.3597 199.008V202.5H57.1117V199.26C57.1117 199.004 57.0957 198.752 57.0637 198.504C57.0317 198.256 56.9637 198.036 56.8597 197.844C56.7637 197.644 56.6237 197.488 56.4397 197.376C56.2557 197.256 56.0077 197.196 55.6957 197.196C55.3117 197.196 54.9877 197.3 54.7237 197.508C54.4597 197.716 54.2597 197.996 54.1237 198.348C53.9877 198.7 53.9197 199.096 53.9197 199.536V202.5H52.6837ZM62.6162 202.572C61.9522 202.572 61.3962 202.436 60.9482 202.164C60.5002 201.892 60.1602 201.516 59.9282 201.036C59.7042 200.548 59.5922 199.988 59.5922 199.356C59.5922 198.716 59.7082 198.152 59.9402 197.664C60.1802 197.176 60.5242 196.792 60.9722 196.512C61.4282 196.232 61.9762 196.092 62.6162 196.092C63.1042 196.092 63.5282 196.184 63.8882 196.368C64.2482 196.544 64.5442 196.784 64.7762 197.088C65.0162 197.392 65.1922 197.732 65.3042 198.108C65.4162 198.476 65.4642 198.86 65.4482 199.26C65.4482 199.348 65.4442 199.432 65.4362 199.512C65.4282 199.592 65.4202 199.676 65.4122 199.764H60.8402C60.8642 200.084 60.9442 200.376 61.0802 200.64C61.2242 200.904 61.4242 201.116 61.6802 201.276C61.9362 201.428 62.2522 201.504 62.6282 201.504C62.8362 201.504 63.0362 201.48 63.2282 201.432C63.4282 201.376 63.6042 201.292 63.7562 201.18C63.9162 201.06 64.0282 200.908 64.0922 200.724H65.3402C65.2362 201.148 65.0482 201.5 64.7762 201.78C64.5122 202.052 64.1882 202.252 63.8042 202.38C63.4282 202.508 63.0322 202.572 62.6162 202.572ZM60.8642 198.78H64.2242C64.2162 198.468 64.1442 198.192 64.0082 197.952C63.8722 197.704 63.6842 197.512 63.4442 197.376C63.2042 197.232 62.9162 197.16 62.5802 197.16C62.2122 197.16 61.9042 197.236 61.6562 197.388C61.4162 197.54 61.2282 197.74 61.0922 197.988C60.9642 198.228 60.8882 198.492 60.8642 198.78ZM66.7228 202.5V196.176H67.8868L67.9468 197.088C68.1068 196.84 68.2908 196.644 68.4988 196.5C68.7068 196.356 68.9348 196.252 69.1828 196.188C69.4308 196.124 69.6908 196.092 69.9628 196.092C70.0348 196.092 70.1028 196.092 70.1668 196.092C70.2308 196.092 70.2908 196.092 70.3468 196.092V197.28H69.9628C69.5068 197.28 69.1268 197.372 68.8228 197.556C68.5268 197.74 68.3068 197.996 68.1628 198.324C68.0268 198.652 67.9588 199.028 67.9588 199.452V202.5H66.7228ZM73.2974 202.572C73.0094 202.572 72.7294 202.536 72.4574 202.464C72.1934 202.384 71.9574 202.268 71.7494 202.116C71.5414 201.956 71.3734 201.76 71.2454 201.528C71.1254 201.288 71.0654 201.008 71.0654 200.688C71.0654 200.304 71.1374 199.988 71.2814 199.74C71.4334 199.484 71.6334 199.288 71.8814 199.152C72.1294 199.008 72.4134 198.908 72.7334 198.852C73.0614 198.788 73.4014 198.756 73.7534 198.756H75.3014C75.3014 198.444 75.2534 198.172 75.1574 197.94C75.0614 197.7 74.9094 197.516 74.7014 197.388C74.5014 197.252 74.2334 197.184 73.8974 197.184C73.6974 197.184 73.5054 197.208 73.3214 197.256C73.1454 197.296 72.9934 197.364 72.8654 197.46C72.7374 197.556 72.6494 197.684 72.6014 197.844H71.3054C71.3534 197.54 71.4614 197.28 71.6294 197.064C71.7974 196.84 72.0054 196.656 72.2534 196.512C72.5014 196.368 72.7654 196.264 73.0454 196.2C73.3334 196.128 73.6254 196.092 73.9214 196.092C74.8334 196.092 75.4894 196.36 75.8894 196.896C76.2974 197.424 76.5014 198.152 76.5014 199.08V202.5H75.4334L75.3854 201.696C75.2014 201.944 74.9814 202.132 74.7254 202.26C74.4774 202.388 74.2294 202.472 73.9814 202.512C73.7334 202.552 73.5054 202.572 73.2974 202.572ZM73.4894 201.528C73.8494 201.528 74.1654 201.468 74.4374 201.348C74.7094 201.22 74.9214 201.04 75.0734 200.808C75.2254 200.568 75.3014 200.288 75.3014 199.968V199.704H74.1734C73.9414 199.704 73.7134 199.712 73.4894 199.728C73.2734 199.736 73.0734 199.768 72.8894 199.824C72.7134 199.872 72.5694 199.956 72.4574 200.076C72.3534 200.196 72.3014 200.368 72.3014 200.592C72.3014 200.808 72.3574 200.984 72.4694 201.12C72.5814 201.256 72.7294 201.36 72.9134 201.432C73.0974 201.496 73.2894 201.528 73.4894 201.528ZM80.5405 202.572C79.9085 202.572 79.3845 202.432 78.9685 202.152C78.5605 201.864 78.2525 201.476 78.0445 200.988C77.8445 200.5 77.7445 199.952 77.7445 199.344C77.7445 198.728 77.8485 198.176 78.0565 197.688C78.2645 197.192 78.5805 196.804 79.0045 196.524C79.4285 196.236 79.9645 196.092 80.6125 196.092C80.8525 196.092 81.0925 196.12 81.3325 196.176C81.5805 196.232 81.8085 196.32 82.0165 196.44C82.2325 196.552 82.4165 196.704 82.5685 196.896V194.016H83.8045V202.5H82.6165L82.5685 201.636C82.4245 201.852 82.2445 202.032 82.0285 202.176C81.8205 202.312 81.5885 202.412 81.3325 202.476C81.0765 202.54 80.8125 202.572 80.5405 202.572ZM80.7445 201.468C81.1525 201.468 81.4885 201.368 81.7525 201.168C82.0245 200.968 82.2285 200.704 82.3645 200.376C82.5005 200.048 82.5685 199.692 82.5685 199.308C82.5685 198.916 82.5005 198.564 82.3645 198.252C82.2365 197.932 82.0365 197.68 81.7645 197.496C81.5005 197.304 81.1605 197.208 80.7445 197.208C80.3125 197.208 79.9685 197.308 79.7125 197.508C79.4565 197.7 79.2685 197.96 79.1485 198.288C79.0365 198.616 78.9805 198.976 78.9805 199.368C78.9805 199.656 79.0125 199.928 79.0765 200.184C79.1405 200.432 79.2405 200.656 79.3765 200.856C79.5205 201.048 79.7045 201.2 79.9285 201.312C80.1525 201.416 80.4245 201.468 80.7445 201.468ZM88.1405 202.572C87.4845 202.572 86.9285 202.44 86.4725 202.176C86.0165 201.904 85.6685 201.524 85.4285 201.036C85.1965 200.548 85.0805 199.984 85.0805 199.344C85.0805 198.696 85.2005 198.132 85.4405 197.652C85.6805 197.164 86.0285 196.784 86.4845 196.512C86.9405 196.232 87.4965 196.092 88.1525 196.092C88.8085 196.092 89.3645 196.232 89.8205 196.512C90.2765 196.784 90.6205 197.164 90.8525 197.652C91.0845 198.14 91.2005 198.708 91.2005 199.356C91.2005 199.988 91.0805 200.548 90.8405 201.036C90.6085 201.524 90.2645 201.904 89.8085 202.176C89.3605 202.44 88.8045 202.572 88.1405 202.572ZM88.1405 201.468C88.5725 201.468 88.9205 201.372 89.1845 201.18C89.4565 200.988 89.6565 200.732 89.7845 200.412C89.9125 200.084 89.9765 199.728 89.9765 199.344C89.9765 198.96 89.9125 198.608 89.7845 198.288C89.6565 197.968 89.4565 197.712 89.1845 197.52C88.9205 197.32 88.5725 197.22 88.1405 197.22C87.7165 197.22 87.3685 197.32 87.0965 197.52C86.8245 197.712 86.6245 197.968 86.4965 198.288C86.3765 198.608 86.3165 198.96 86.3165 199.344C86.3165 199.736 86.3765 200.092 86.4965 200.412C86.6245 200.732 86.8245 200.988 87.0965 201.18C87.3685 201.372 87.7165 201.468 88.1405 201.468ZM95.7619 204.804V196.176H96.9379L96.9979 197.076C97.2219 196.748 97.5139 196.504 97.8739 196.344C98.2339 196.176 98.6259 196.092 99.0499 196.092C99.6819 196.092 100.202 196.236 100.61 196.524C101.018 196.804 101.322 197.192 101.522 197.688C101.722 198.176 101.822 198.724 101.822 199.332C101.822 199.956 101.718 200.512 101.51 201C101.31 201.488 100.998 201.872 100.574 202.152C100.158 202.432 99.6299 202.572 98.9899 202.572C98.6859 202.572 98.4059 202.54 98.1499 202.476C97.9019 202.412 97.6819 202.32 97.4899 202.2C97.3059 202.072 97.1419 201.924 96.9979 201.756V204.804H95.7619ZM98.8339 201.468C99.2659 201.468 99.6099 201.372 99.8659 201.18C100.122 200.98 100.306 200.72 100.418 200.4C100.53 200.08 100.586 199.732 100.586 199.356C100.586 198.964 100.526 198.608 100.406 198.288C100.294 197.96 100.106 197.7 99.8419 197.508C99.5859 197.308 99.2419 197.208 98.8099 197.208C98.4179 197.208 98.0859 197.308 97.8139 197.508C97.5419 197.7 97.3339 197.96 97.1899 198.288C97.0539 198.616 96.9859 198.972 96.9859 199.356C96.9859 199.748 97.0499 200.108 97.1779 200.436C97.3139 200.756 97.5179 201.008 97.7899 201.192C98.0699 201.376 98.4179 201.468 98.8339 201.468ZM105.918 202.572C105.262 202.572 104.706 202.44 104.25 202.176C103.794 201.904 103.446 201.524 103.206 201.036C102.974 200.548 102.858 199.984 102.858 199.344C102.858 198.696 102.978 198.132 103.218 197.652C103.458 197.164 103.806 196.784 104.262 196.512C104.718 196.232 105.274 196.092 105.93 196.092C106.586 196.092 107.142 196.232 107.598 196.512C108.054 196.784 108.398 197.164 108.63 197.652C108.862 198.14 108.978 198.708 108.978 199.356C108.978 199.988 108.858 200.548 108.618 201.036C108.386 201.524 108.042 201.904 107.586 202.176C107.138 202.44 106.582 202.572 105.918 202.572ZM105.918 201.468C106.35 201.468 106.698 201.372 106.962 201.18C107.234 200.988 107.434 200.732 107.562 200.412C107.69 200.084 107.754 199.728 107.754 199.344C107.754 198.96 107.69 198.608 107.562 198.288C107.434 197.968 107.234 197.712 106.962 197.52C106.698 197.32 106.35 197.22 105.918 197.22C105.494 197.22 105.146 197.32 104.874 197.52C104.602 197.712 104.402 197.968 104.274 198.288C104.154 198.608 104.094 198.96 104.094 199.344C104.094 199.736 104.154 200.092 104.274 200.412C104.402 200.732 104.602 200.988 104.874 201.18C105.146 201.372 105.494 201.468 105.918 201.468ZM110.246 202.5V196.176H111.41L111.47 197.088C111.63 196.84 111.814 196.644 112.022 196.5C112.23 196.356 112.458 196.252 112.706 196.188C112.954 196.124 113.214 196.092 113.486 196.092C113.558 196.092 113.626 196.092 113.69 196.092C113.754 196.092 113.814 196.092 113.87 196.092V197.28H113.486C113.03 197.28 112.65 197.372 112.346 197.556C112.05 197.74 111.83 197.996 111.686 198.324C111.55 198.652 111.482 199.028 111.482 199.452V202.5H110.246ZM118.23 202.5V194.004H121.95C122.342 194.004 122.698 194.044 123.018 194.124C123.346 194.196 123.63 194.316 123.87 194.484C124.11 194.652 124.294 194.876 124.422 195.156C124.558 195.436 124.626 195.792 124.626 196.224C124.626 196.576 124.546 196.904 124.386 197.208C124.226 197.512 123.99 197.744 123.678 197.904C124.094 198.04 124.422 198.276 124.662 198.612C124.902 198.94 125.022 199.376 125.022 199.92C125.022 200.408 124.93 200.82 124.746 201.156C124.562 201.484 124.31 201.748 123.99 201.948C123.67 202.148 123.298 202.292 122.874 202.38C122.45 202.46 121.998 202.5 121.518 202.5H118.23ZM119.946 200.916H121.722C121.938 200.916 122.138 200.9 122.322 200.868C122.514 200.836 122.682 200.784 122.826 200.712C122.97 200.632 123.082 200.524 123.162 200.388C123.25 200.252 123.294 200.084 123.294 199.884C123.294 199.7 123.258 199.548 123.186 199.428C123.122 199.3 123.026 199.196 122.898 199.116C122.778 199.036 122.634 198.98 122.466 198.948C122.306 198.916 122.126 198.9 121.926 198.9H119.946V200.916ZM119.946 197.472H121.518C121.734 197.472 121.93 197.452 122.106 197.412C122.282 197.372 122.43 197.308 122.55 197.22C122.67 197.132 122.762 197.024 122.826 196.896C122.89 196.76 122.922 196.604 122.922 196.428C122.93 196.188 122.878 196.012 122.766 195.9C122.654 195.78 122.502 195.7 122.31 195.66C122.118 195.612 121.902 195.588 121.662 195.588H119.946V197.472ZM128.991 202.584C128.063 202.584 127.347 202.348 126.843 201.876C126.347 201.396 126.099 200.676 126.099 199.716V196.176H127.779V199.596C127.779 199.884 127.819 200.14 127.899 200.364C127.987 200.58 128.119 200.752 128.295 200.88C128.479 201.008 128.715 201.072 129.003 201.072C129.315 201.072 129.555 201.004 129.723 200.868C129.891 200.732 130.007 200.552 130.071 200.328C130.135 200.096 130.167 199.852 130.167 199.596V196.176H131.835V199.716C131.835 200.716 131.583 201.444 131.079 201.9C130.583 202.356 129.887 202.584 128.991 202.584ZM136.01 202.584C135.082 202.584 134.366 202.348 133.862 201.876C133.366 201.396 133.118 200.676 133.118 199.716V196.176H134.798V199.596C134.798 199.884 134.838 200.14 134.918 200.364C135.006 200.58 135.138 200.752 135.314 200.88C135.498 201.008 135.734 201.072 136.022 201.072C136.334 201.072 136.574 201.004 136.742 200.868C136.91 200.732 137.026 200.552 137.09 200.328C137.154 200.096 137.186 199.852 137.186 199.596V196.176H138.854V199.716C138.854 200.716 138.602 201.444 138.098 201.9C137.602 202.356 136.906 202.584 136.01 202.584ZM142.994 202.584C142.346 202.584 141.79 202.452 141.326 202.188C140.87 201.924 140.522 201.552 140.282 201.072C140.042 200.584 139.922 200.012 139.922 199.356C139.922 198.692 140.046 198.116 140.294 197.628C140.542 197.132 140.898 196.748 141.362 196.476C141.834 196.204 142.402 196.068 143.066 196.068C143.578 196.068 144.034 196.16 144.434 196.344C144.834 196.528 145.154 196.792 145.394 197.136C145.642 197.48 145.786 197.904 145.826 198.408H144.182C144.11 198.128 143.97 197.924 143.762 197.796C143.562 197.668 143.322 197.604 143.042 197.604C142.682 197.604 142.394 197.692 142.178 197.868C141.97 198.044 141.818 198.268 141.722 198.54C141.634 198.812 141.59 199.084 141.59 199.356C141.59 199.652 141.638 199.932 141.734 200.196C141.83 200.452 141.982 200.664 142.19 200.832C142.406 200.992 142.686 201.072 143.03 201.072C143.318 201.072 143.57 201.008 143.786 200.88C144.002 200.744 144.142 200.536 144.206 200.256H145.886C145.846 200.776 145.69 201.208 145.418 201.552C145.146 201.896 144.798 202.156 144.374 202.332C143.958 202.5 143.498 202.584 142.994 202.584ZM146.9 202.5V194.004H148.58V202.5H146.9ZM152.708 205.416C152.22 205.416 151.744 205.352 151.28 205.224C150.816 205.096 150.38 204.88 149.972 204.576L150.536 203.232C150.792 203.424 151.084 203.576 151.412 203.688C151.74 203.808 152.104 203.868 152.504 203.868C153.12 203.868 153.576 203.724 153.872 203.436C154.176 203.148 154.328 202.732 154.328 202.188V201.852C154.192 202.036 154.02 202.184 153.812 202.296C153.612 202.4 153.396 202.476 153.164 202.524C152.932 202.572 152.7 202.596 152.468 202.596C151.86 202.596 151.372 202.468 151.004 202.212C150.636 201.956 150.368 201.608 150.2 201.168C150.04 200.72 149.96 200.212 149.96 199.644V196.176H151.64V199.296C151.64 199.504 151.652 199.712 151.676 199.92C151.7 200.128 151.756 200.32 151.844 200.496C151.932 200.672 152.064 200.816 152.24 200.928C152.416 201.032 152.652 201.084 152.948 201.084C153.332 201.084 153.62 200.992 153.812 200.808C154.004 200.616 154.132 200.376 154.196 200.088C154.268 199.8 154.304 199.5 154.304 199.188V196.176H155.984V201.588C155.984 202.164 155.928 202.688 155.816 203.16C155.712 203.632 155.532 204.036 155.276 204.372C155.028 204.708 154.692 204.964 154.268 205.14C153.852 205.324 153.332 205.416 152.708 205.416Z" fill="#6B7280"/>
</g>
<path d="M6.5 2.5H185.5H6.5ZM185.5 224.5H6.5H185.5ZM-1.5 224.5V11.5C-1.5 6.52944 2.52944 2.5 7.5 2.5H14.5C14.5 2.5 14.5 2.94772 14.5 3.5V224.5H-1.5ZM185.5 2.5V224.5V2.5Z" fill="#0EA5E9" mask="url(#path-1-inside-1_304_1818)"/>
</g>
<defs>
<filter id="filter0_d_304_1818" x="0.5" y="0.5" width="191" height="234" filterUnits="userSpaceOnUse" color-interpolation-filters="sRGB">
<feFlood flood-opacity="0" result="BackgroundImageFix"/>
<feColorMatrix in="SourceAlpha" type="matrix" values="0 0 0 0 0 0 0 0 0 0 0 0 0 0 0 0 0 0 127 0" result="hardAlpha"/>
<feOffset dy="4"/>
<feGaussianBlur stdDeviation="3"/>
<feComposite in2="hardAlpha" operator="out"/>
<feColorMatrix type="matrix" values="0 0 0 0 0 0 0 0 0 0 0 0 0 0 0 0 0 0 0.09 0"/>
<feBlend mode="normal" in2="BackgroundImageFix" result="effect1_dropShadow_304_1818"/>
<feBlend mode="normal" in="SourceGraphic" in2="effect1_dropShadow_304_1818" result="shape"/>
</filter>
<linearGradient id="paint0_linear_304_1818" x1="99.5" y1="-8" x2="51.8022" y2="188.275" gradientUnits="userSpaceOnUse">
<stop stop-color="#E0FFE6"/>
<stop offset="1" stop-color="#8CEAFF"/>
</linearGradient>
<clipPath id="clip0_304_1818">
<path d="M6.5 4.11001C6.5 3.54051 6.5 3.25576 6.61259 3.03903C6.70746 2.85638 6.85638 2.70746 7.03903 2.61259C7.25576 2.5 7.54051 2.5 8.11 2.5H172.62C177.176 2.5 179.454 2.5 181.188 3.40069C182.649 4.1597 183.84 5.35106 184.599 6.8122C185.5 8.54611 185.5 10.8241 185.5 15.38V224.5H6.5V4.11001Z" fill="white"/>
</clipPath>
</defs>
</svg>
