<svg width="20" height="32" viewBox="0 0 20 32" fill="none" xmlns="http://www.w3.org/2000/svg">
<g clip-path="url(#clip0_300_1782)">
<path d="M14.6343 3.38905C14.7178 3.16326 15.0372 3.16326 15.1208 3.38905C15.6856 4.91538 16.889 6.11879 18.4153 6.68359C18.6411 6.76714 18.6411 7.08652 18.4153 7.17007C16.889 7.73487 15.6856 8.93828 15.1208 10.4646C15.0372 10.6904 14.7178 10.6904 14.6343 10.4646C14.0695 8.93828 12.8661 7.73487 11.3398 7.17007C11.114 7.08652 11.114 6.76714 11.3398 6.68359C12.8661 6.11879 14.0695 4.91538 14.6343 3.38905Z" fill="currentColor"/>
<path d="M19.0731 22.7317C19.0731 18.3888 15.613 14.8445 11.2682 14.6432C11.0529 14.6332 10.8779 14.8089 10.8779 15.0244V30.439C10.8779 30.6546 11.0529 30.8302 11.2682 30.8203C15.613 30.6189 19.0731 27.0745 19.0731 22.7317Z" fill="#1FC468"/>
<path d="M8.73135 6.25581V30.7317H1.92647C1.31689 30.7317 0.633789 30 0.633789 29.439V1.17073C0.633789 0.524154 1.15794 0 1.80452 0H12.5098C12.7148 0 12.7734 0.280379 12.5857 0.362527C10.2443 1.38688 8.73135 3.70014 8.73135 6.25581Z" fill="#1FC468"/>
</g>
<defs>
<clipPath id="clip0_300_1782">
<rect width="19" height="32" fill="white" transform="translate(0.316895)"/>
</clipPath>
</defs>
</svg>
