<svg width="192" height="222" viewBox="0 0 192 222" fill="none" xmlns="http://www.w3.org/2000/svg">
<g filter="url(#filter0_d_304_1823)">
<g clip-path="url(#clip0_304_1823)">
<mask id="path-1-inside-1_304_1823" fill="white">
<path d="M6.5 4.11001C6.5 3.54051 6.5 3.25576 6.61259 3.03903C6.70746 2.85638 6.85638 2.70746 7.03903 2.61259C7.25576 2.5 7.54051 2.5 8.11 2.5H172.62C177.176 2.5 179.454 2.5 181.188 3.40069C182.649 4.1597 183.84 5.35106 184.599 6.8122C185.5 8.54611 185.5 10.8241 185.5 15.38V224.5H6.5V4.11001Z"/>
</mask>
<path d="M6.5 4.11001C6.5 3.54051 6.5 3.25576 6.61259 3.03903C6.70746 2.85638 6.85638 2.70746 7.03903 2.61259C7.25576 2.5 7.54051 2.5 8.11 2.5H172.62C177.176 2.5 179.454 2.5 181.188 3.40069C182.649 4.1597 183.84 5.35106 184.599 6.8122C185.5 8.54611 185.5 10.8241 185.5 15.38V224.5H6.5V4.11001Z" fill="url(#paint0_linear_304_1823)"/>
<path d="M25.422 38.5V25.774H34.314V27.826H27.672V31.624H33.36V33.676H27.672V38.5H25.422ZM40.0841 38.626C38.7161 38.626 37.6661 38.272 36.9341 37.564C36.2141 36.856 35.8541 35.776 35.8541 34.324V29.014H38.0501V34.18C38.0501 34.684 38.1161 35.122 38.2481 35.494C38.3921 35.866 38.6141 36.154 38.9141 36.358C39.2261 36.55 39.6161 36.646 40.0841 36.646C40.5881 36.646 40.9841 36.544 41.2721 36.34C41.5721 36.124 41.7821 35.83 41.9021 35.458C42.0221 35.086 42.0821 34.66 42.0821 34.18V29.014H44.2781V34.324C44.2781 35.812 43.9061 36.904 43.1621 37.6C42.4301 38.284 41.4041 38.626 40.0841 38.626ZM46.3667 38.5V29.014H48.4187L48.5447 30.22C48.7967 29.884 49.0907 29.62 49.4267 29.428C49.7627 29.236 50.1167 29.098 50.4887 29.014C50.8607 28.918 51.2087 28.87 51.5327 28.87C52.4327 28.87 53.1407 29.068 53.6567 29.464C54.1847 29.86 54.5567 30.388 54.7727 31.048C54.9887 31.708 55.0967 32.446 55.0967 33.262V38.5H52.9007V33.622C52.9007 33.274 52.8767 32.938 52.8287 32.614C52.7807 32.278 52.6847 31.978 52.5407 31.714C52.4087 31.45 52.2167 31.24 51.9647 31.084C51.7127 30.928 51.3767 30.85 50.9567 30.85C50.4407 30.85 50.0027 30.988 49.6427 31.264C49.2827 31.54 49.0127 31.912 48.8327 32.38C48.6527 32.836 48.5627 33.358 48.5627 33.946V38.5H46.3667ZM61.0297 38.626C60.0697 38.626 59.2777 38.41 58.6537 37.978C58.0297 37.534 57.5617 36.946 57.2497 36.214C56.9497 35.482 56.7997 34.666 56.7997 33.766C56.7997 32.83 56.9617 31.996 57.2857 31.264C57.6097 30.52 58.0957 29.938 58.7437 29.518C59.3917 29.086 60.2017 28.87 61.1737 28.87C61.5337 28.87 61.8817 28.912 62.2177 28.996C62.5657 29.068 62.8897 29.188 63.1897 29.356C63.5017 29.512 63.7597 29.722 63.9637 29.986V25.774H66.1597V38.5H64.0357L63.9997 37.312C63.7717 37.612 63.5017 37.858 63.1897 38.05C62.8897 38.242 62.5537 38.386 62.1817 38.482C61.8097 38.578 61.4257 38.626 61.0297 38.626ZM61.4437 36.646C62.0197 36.646 62.4937 36.514 62.8657 36.25C63.2377 35.974 63.5137 35.614 63.6937 35.17C63.8857 34.714 63.9817 34.234 63.9817 33.73C63.9817 33.202 63.8857 32.722 63.6937 32.29C63.5137 31.858 63.2377 31.51 62.8657 31.246C62.4937 30.982 62.0197 30.85 61.4437 30.85C60.8317 30.85 60.3457 30.988 59.9857 31.264C59.6377 31.54 59.3797 31.906 59.2117 32.362C59.0557 32.806 58.9777 33.286 58.9777 33.802C58.9777 34.186 59.0197 34.552 59.1037 34.9C59.1997 35.236 59.3437 35.536 59.5357 35.8C59.7277 36.064 59.9797 36.274 60.2917 36.43C60.6037 36.574 60.9877 36.646 61.4437 36.646ZM71.3106 38.626C70.8666 38.626 70.4466 38.566 70.0506 38.446C69.6546 38.326 69.3006 38.152 68.9886 37.924C68.6766 37.684 68.4246 37.39 68.2326 37.042C68.0526 36.682 67.9626 36.262 67.9626 35.782C67.9626 35.17 68.0826 34.672 68.3226 34.288C68.5626 33.892 68.8866 33.592 69.2946 33.388C69.7146 33.184 70.1886 33.046 70.7166 32.974C71.2446 32.89 71.7966 32.848 72.3726 32.848H74.2266C74.2266 32.428 74.1606 32.068 74.0286 31.768C73.8966 31.456 73.6866 31.21 73.3986 31.03C73.1226 30.85 72.7626 30.76 72.3186 30.76C72.0306 30.76 71.7606 30.796 71.5086 30.868C71.2686 30.928 71.0586 31.03 70.8786 31.174C70.7106 31.306 70.5906 31.48 70.5186 31.696H68.2686C68.3526 31.204 68.5206 30.784 68.7726 30.436C69.0366 30.076 69.3546 29.782 69.7266 29.554C70.1106 29.326 70.5306 29.158 70.9866 29.05C71.4426 28.93 71.9046 28.87 72.3726 28.87C73.7526 28.87 74.7546 29.266 75.3786 30.058C76.0146 30.85 76.3326 31.96 76.3326 33.388V38.5H74.3886L74.3346 37.276C74.0586 37.684 73.7286 37.984 73.3446 38.176C72.9606 38.368 72.5886 38.488 72.2286 38.536C71.8686 38.596 71.5626 38.626 71.3106 38.626ZM71.7426 36.844C72.2226 36.844 72.6486 36.754 73.0206 36.574C73.3926 36.394 73.6866 36.142 73.9026 35.818C74.1306 35.494 74.2446 35.122 74.2446 34.702V34.396H72.5166C72.2286 34.396 71.9406 34.408 71.6526 34.432C71.3766 34.444 71.1246 34.492 70.8966 34.576C70.6686 34.648 70.4826 34.762 70.3386 34.918C70.2066 35.074 70.1406 35.296 70.1406 35.584C70.1406 35.872 70.2126 36.106 70.3566 36.286C70.5126 36.466 70.7106 36.604 70.9506 36.7C71.2026 36.796 71.4666 36.844 71.7426 36.844ZM78.4292 38.5V29.014H80.4452L80.5892 30.094C80.8292 29.77 81.0872 29.524 81.3632 29.356C81.6512 29.176 81.9452 29.05 82.2452 28.978C82.5572 28.906 82.8512 28.87 83.1272 28.87C83.7272 28.87 84.2372 28.99 84.6572 29.23C85.0892 29.47 85.4252 29.83 85.6652 30.31C85.9052 29.974 86.1752 29.704 86.4752 29.5C86.7752 29.284 87.0932 29.128 87.4292 29.032C87.7652 28.924 88.1192 28.87 88.4912 28.87C89.2232 28.87 89.8112 29.026 90.2552 29.338C90.6992 29.638 91.0232 30.058 91.2272 30.598C91.4312 31.126 91.5332 31.732 91.5332 32.416V38.5H89.3372V33.118C89.3372 32.878 89.3252 32.626 89.3012 32.362C89.2772 32.098 89.2112 31.852 89.1032 31.624C89.0072 31.396 88.8632 31.21 88.6712 31.066C88.4792 30.922 88.2092 30.85 87.8612 30.85C87.5132 30.85 87.2252 30.928 86.9972 31.084C86.7812 31.228 86.6012 31.426 86.4572 31.678C86.3252 31.918 86.2292 32.188 86.1692 32.488C86.1212 32.776 86.0972 33.064 86.0972 33.352V38.5H83.9012V33.1C83.9012 32.872 83.8832 32.632 83.8472 32.38C83.8232 32.116 83.7632 31.87 83.6672 31.642C83.5832 31.402 83.4392 31.21 83.2352 31.066C83.0432 30.922 82.7732 30.85 82.4252 30.85C81.9212 30.85 81.5372 30.988 81.2732 31.264C81.0212 31.54 80.8472 31.876 80.7512 32.272C80.6672 32.668 80.6252 33.046 80.6252 33.406V38.5H78.4292ZM97.812 38.626C96.828 38.626 95.988 38.422 95.292 38.014C94.608 37.606 94.086 37.042 93.726 36.322C93.378 35.59 93.204 34.744 93.204 33.784C93.204 32.824 93.384 31.978 93.744 31.246C94.116 30.502 94.644 29.92 95.328 29.5C96.024 29.08 96.858 28.87 97.83 28.87C98.55 28.87 99.18 29.002 99.72 29.266C100.26 29.518 100.71 29.866 101.07 30.31C101.442 30.754 101.718 31.258 101.898 31.822C102.078 32.386 102.162 32.98 102.15 33.604C102.138 33.748 102.126 33.892 102.114 34.036C102.102 34.168 102.084 34.312 102.06 34.468H95.4C95.436 34.888 95.544 35.272 95.724 35.62C95.916 35.968 96.18 36.244 96.516 36.448C96.864 36.652 97.296 36.754 97.812 36.754C98.112 36.754 98.4 36.718 98.676 36.646C98.952 36.562 99.192 36.442 99.396 36.286C99.612 36.13 99.756 35.932 99.828 35.692H102.024C101.868 36.376 101.58 36.934 101.16 37.366C100.74 37.798 100.236 38.116 99.648 38.32C99.072 38.524 98.46 38.626 97.812 38.626ZM95.436 32.83H100.008C100.008 32.434 99.918 32.074 99.738 31.75C99.558 31.426 99.3 31.174 98.964 30.994C98.64 30.802 98.244 30.706 97.776 30.706C97.272 30.706 96.852 30.808 96.516 31.012C96.18 31.216 95.922 31.48 95.742 31.804C95.562 32.128 95.46 32.47 95.436 32.83ZM103.9 38.5V29.014H105.952L106.078 30.22C106.33 29.884 106.624 29.62 106.96 29.428C107.296 29.236 107.65 29.098 108.022 29.014C108.394 28.918 108.742 28.87 109.066 28.87C109.966 28.87 110.674 29.068 111.19 29.464C111.718 29.86 112.09 30.388 112.306 31.048C112.522 31.708 112.63 32.446 112.63 33.262V38.5H110.434V33.622C110.434 33.274 110.41 32.938 110.362 32.614C110.314 32.278 110.218 31.978 110.074 31.714C109.942 31.45 109.75 31.24 109.498 31.084C109.246 30.928 108.91 30.85 108.49 30.85C107.974 30.85 107.536 30.988 107.176 31.264C106.816 31.54 106.546 31.912 106.366 32.38C106.186 32.836 106.096 33.358 106.096 33.946V38.5H103.9ZM118.473 38.608C117.429 38.608 116.667 38.32 116.187 37.744C115.707 37.168 115.467 36.37 115.467 35.35V30.958H114.009V29.014H115.467V26.35H117.663V29.014H120.543V30.958H117.663V34.936C117.663 35.248 117.699 35.53 117.771 35.782C117.843 36.034 117.975 36.232 118.167 36.376C118.359 36.52 118.623 36.598 118.959 36.61C119.247 36.61 119.493 36.562 119.697 36.466C119.901 36.37 120.069 36.262 120.201 36.142L120.939 37.816C120.711 38.008 120.453 38.164 120.165 38.284C119.889 38.404 119.607 38.488 119.319 38.536C119.031 38.584 118.749 38.608 118.473 38.608ZM126.466 38.626C125.494 38.626 124.654 38.428 123.946 38.032C123.25 37.636 122.71 37.072 122.326 36.34C121.954 35.608 121.768 34.75 121.768 33.766C121.768 32.77 121.96 31.912 122.344 31.192C122.728 30.46 123.268 29.89 123.964 29.482C124.66 29.074 125.494 28.87 126.466 28.87C127.426 28.87 128.254 29.074 128.95 29.482C129.646 29.89 130.18 30.466 130.552 31.21C130.924 31.942 131.11 32.806 131.11 33.802C131.11 34.774 130.924 35.626 130.552 36.358C130.192 37.078 129.664 37.636 128.968 38.032C128.272 38.428 127.438 38.626 126.466 38.626ZM126.448 36.628C127.048 36.628 127.528 36.496 127.888 36.232C128.26 35.968 128.53 35.62 128.698 35.188C128.866 34.756 128.95 34.288 128.95 33.784C128.95 33.28 128.866 32.806 128.698 32.362C128.53 31.918 128.26 31.564 127.888 31.3C127.528 31.024 127.048 30.886 126.448 30.886C125.848 30.886 125.362 31.024 124.99 31.3C124.618 31.564 124.348 31.918 124.18 32.362C124.012 32.794 123.928 33.268 123.928 33.784C123.928 34.288 124.012 34.762 124.18 35.206C124.36 35.638 124.63 35.986 124.99 36.25C125.362 36.502 125.848 36.628 126.448 36.628ZM136.505 38.626C136.049 38.626 135.593 38.578 135.137 38.482C134.693 38.386 134.273 38.23 133.877 38.014C133.481 37.786 133.151 37.48 132.887 37.096C132.623 36.712 132.449 36.232 132.365 35.656H134.579C134.675 35.92 134.825 36.136 135.029 36.304C135.245 36.46 135.491 36.58 135.767 36.664C136.055 36.736 136.337 36.772 136.613 36.772C136.781 36.772 136.961 36.76 137.153 36.736C137.357 36.712 137.543 36.664 137.711 36.592C137.891 36.52 138.035 36.418 138.143 36.286C138.251 36.142 138.305 35.956 138.305 35.728C138.305 35.512 138.245 35.344 138.125 35.224C138.005 35.092 137.843 34.99 137.639 34.918C137.435 34.834 137.189 34.768 136.901 34.72C136.385 34.612 135.833 34.498 135.245 34.378C134.657 34.246 134.147 34.042 133.715 33.766C133.535 33.658 133.379 33.532 133.247 33.388C133.115 33.244 133.001 33.088 132.905 32.92C132.821 32.74 132.755 32.548 132.707 32.344C132.671 32.14 132.653 31.918 132.653 31.678C132.653 31.174 132.755 30.748 132.959 30.4C133.175 30.04 133.457 29.752 133.805 29.536C134.165 29.308 134.573 29.14 135.029 29.032C135.485 28.924 135.953 28.87 136.433 28.87C137.081 28.87 137.669 28.972 138.197 29.176C138.725 29.38 139.163 29.692 139.511 30.112C139.871 30.532 140.087 31.066 140.159 31.714H138.071C138.011 31.414 137.825 31.174 137.513 30.994C137.213 30.814 136.829 30.724 136.361 30.724C136.193 30.724 136.019 30.742 135.839 30.778C135.659 30.802 135.485 30.85 135.317 30.922C135.161 30.982 135.029 31.078 134.921 31.21C134.825 31.342 134.777 31.504 134.777 31.696C134.777 31.876 134.819 32.032 134.903 32.164C134.999 32.296 135.137 32.41 135.317 32.506C135.509 32.59 135.731 32.662 135.983 32.722C136.391 32.806 136.817 32.89 137.261 32.974C137.705 33.058 138.089 33.142 138.413 33.226C138.797 33.334 139.145 33.49 139.457 33.694C139.769 33.886 140.009 34.144 140.177 34.468C140.357 34.78 140.447 35.182 140.447 35.674C140.447 36.25 140.327 36.73 140.087 37.114C139.859 37.498 139.553 37.798 139.169 38.014C138.785 38.23 138.359 38.386 137.891 38.482C137.423 38.578 136.961 38.626 136.505 38.626ZM28.932 60.626C27.972 60.626 27.18 60.41 26.556 59.978C25.932 59.534 25.464 58.946 25.152 58.214C24.852 57.482 24.702 56.666 24.702 55.766C24.702 54.83 24.864 53.996 25.188 53.264C25.512 52.52 25.998 51.938 26.646 51.518C27.294 51.086 28.104 50.87 29.076 50.87C29.436 50.87 29.784 50.912 30.12 50.996C30.468 51.068 30.792 51.188 31.092 51.356C31.404 51.512 31.662 51.722 31.866 51.986V47.774H34.062V60.5H31.938L31.902 59.312C31.674 59.612 31.404 59.858 31.092 60.05C30.792 60.242 30.456 60.386 30.084 60.482C29.712 60.578 29.328 60.626 28.932 60.626ZM29.346 58.646C29.922 58.646 30.396 58.514 30.768 58.25C31.14 57.974 31.416 57.614 31.596 57.17C31.788 56.714 31.884 56.234 31.884 55.73C31.884 55.202 31.788 54.722 31.596 54.29C31.416 53.858 31.14 53.51 30.768 53.246C30.396 52.982 29.922 52.85 29.346 52.85C28.734 52.85 28.248 52.988 27.888 53.264C27.54 53.54 27.282 53.906 27.114 54.362C26.958 54.806 26.88 55.286 26.88 55.802C26.88 56.186 26.922 56.552 27.006 56.9C27.102 57.236 27.246 57.536 27.438 57.8C27.63 58.064 27.882 58.274 28.194 58.43C28.506 58.574 28.89 58.646 29.346 58.646ZM40.437 60.626C39.453 60.626 38.613 60.422 37.917 60.014C37.233 59.606 36.711 59.042 36.351 58.322C36.003 57.59 35.829 56.744 35.829 55.784C35.829 54.824 36.009 53.978 36.369 53.246C36.741 52.502 37.269 51.92 37.953 51.5C38.649 51.08 39.483 50.87 40.455 50.87C41.175 50.87 41.805 51.002 42.345 51.266C42.885 51.518 43.335 51.866 43.695 52.31C44.067 52.754 44.343 53.258 44.523 53.822C44.703 54.386 44.787 54.98 44.775 55.604C44.763 55.748 44.751 55.892 44.739 56.036C44.727 56.168 44.709 56.312 44.685 56.468H38.025C38.061 56.888 38.169 57.272 38.349 57.62C38.541 57.968 38.805 58.244 39.141 58.448C39.489 58.652 39.921 58.754 40.437 58.754C40.737 58.754 41.025 58.718 41.301 58.646C41.577 58.562 41.817 58.442 42.021 58.286C42.237 58.13 42.381 57.932 42.453 57.692H44.649C44.493 58.376 44.205 58.934 43.785 59.366C43.365 59.798 42.861 60.116 42.273 60.32C41.697 60.524 41.085 60.626 40.437 60.626ZM38.061 54.83H42.633C42.633 54.434 42.543 54.074 42.363 53.75C42.183 53.426 41.925 53.174 41.589 52.994C41.265 52.802 40.869 52.706 40.401 52.706C39.897 52.706 39.477 52.808 39.141 53.012C38.805 53.216 38.547 53.48 38.367 53.804C38.187 54.128 38.085 54.47 38.061 54.83ZM46.5249 60.5V47.774H48.7209V60.5H46.5249ZM56.2189 60.5V47.774H59.2969L62.8249 54.2L66.3169 47.774H69.3049V60.5H67.0549V50.618L63.2569 57.494H62.3029L58.4689 50.618V60.5H56.2189ZM74.8087 60.626C74.3647 60.626 73.9447 60.566 73.5487 60.446C73.1527 60.326 72.7987 60.152 72.4867 59.924C72.1747 59.684 71.9227 59.39 71.7307 59.042C71.5507 58.682 71.4607 58.262 71.4607 57.782C71.4607 57.17 71.5807 56.672 71.8207 56.288C72.0607 55.892 72.3847 55.592 72.7927 55.388C73.2127 55.184 73.6867 55.046 74.2147 54.974C74.7427 54.89 75.2947 54.848 75.8707 54.848H77.7247C77.7247 54.428 77.6587 54.068 77.5267 53.768C77.3947 53.456 77.1847 53.21 76.8967 53.03C76.6207 52.85 76.2607 52.76 75.8167 52.76C75.5287 52.76 75.2587 52.796 75.0067 52.868C74.7667 52.928 74.5567 53.03 74.3767 53.174C74.2087 53.306 74.0887 53.48 74.0167 53.696H71.7667C71.8507 53.204 72.0187 52.784 72.2707 52.436C72.5347 52.076 72.8527 51.782 73.2247 51.554C73.6087 51.326 74.0287 51.158 74.4847 51.05C74.9407 50.93 75.4027 50.87 75.8707 50.87C77.2507 50.87 78.2527 51.266 78.8767 52.058C79.5127 52.85 79.8307 53.96 79.8307 55.388V60.5H77.8867L77.8327 59.276C77.5567 59.684 77.2267 59.984 76.8427 60.176C76.4587 60.368 76.0867 60.488 75.7267 60.536C75.3667 60.596 75.0607 60.626 74.8087 60.626ZM75.2407 58.844C75.7207 58.844 76.1467 58.754 76.5187 58.574C76.8907 58.394 77.1847 58.142 77.4007 57.818C77.6287 57.494 77.7427 57.122 77.7427 56.702V56.396H76.0147C75.7267 56.396 75.4387 56.408 75.1507 56.432C74.8747 56.444 74.6227 56.492 74.3947 56.576C74.1667 56.648 73.9807 56.762 73.8367 56.918C73.7047 57.074 73.6387 57.296 73.6387 57.584C73.6387 57.872 73.7107 58.106 73.8547 58.286C74.0107 58.466 74.2087 58.604 74.4487 58.7C74.7007 58.796 74.9647 58.844 75.2407 58.844ZM81.9272 60.5V51.014H83.9252L84.0512 52.256C84.2912 51.896 84.5612 51.62 84.8612 51.428C85.1732 51.224 85.5032 51.08 85.8512 50.996C86.2112 50.912 86.5712 50.87 86.9312 50.87C87.0632 50.87 87.1832 50.87 87.2912 50.87C87.4112 50.87 87.5072 50.876 87.5792 50.888V52.976H87.0032C86.3792 52.976 85.8512 53.096 85.4192 53.336C84.9872 53.576 84.6632 53.918 84.4472 54.362C84.2312 54.806 84.1232 55.352 84.1232 56V60.5H81.9272ZM88.8706 60.5V47.774H91.0666V54.812H92.4346L94.9366 51.014H97.4026L94.3246 55.532L97.6546 60.5H95.0986L92.5606 56.738H91.0666V60.5H88.8706ZM102.945 60.626C101.961 60.626 101.121 60.422 100.425 60.014C99.7408 59.606 99.2188 59.042 98.8588 58.322C98.5108 57.59 98.3368 56.744 98.3368 55.784C98.3368 54.824 98.5168 53.978 98.8768 53.246C99.2488 52.502 99.7768 51.92 100.461 51.5C101.157 51.08 101.991 50.87 102.963 50.87C103.683 50.87 104.313 51.002 104.853 51.266C105.393 51.518 105.843 51.866 106.203 52.31C106.575 52.754 106.851 53.258 107.031 53.822C107.211 54.386 107.295 54.98 107.283 55.604C107.271 55.748 107.259 55.892 107.247 56.036C107.235 56.168 107.217 56.312 107.193 56.468H100.533C100.569 56.888 100.677 57.272 100.857 57.62C101.049 57.968 101.313 58.244 101.649 58.448C101.997 58.652 102.429 58.754 102.945 58.754C103.245 58.754 103.533 58.718 103.809 58.646C104.085 58.562 104.325 58.442 104.529 58.286C104.745 58.13 104.889 57.932 104.961 57.692H107.157C107.001 58.376 106.713 58.934 106.293 59.366C105.873 59.798 105.369 60.116 104.781 60.32C104.205 60.524 103.593 60.626 102.945 60.626ZM100.569 54.83H105.141C105.141 54.434 105.051 54.074 104.871 53.75C104.691 53.426 104.433 53.174 104.097 52.994C103.773 52.802 103.377 52.706 102.909 52.706C102.405 52.706 101.985 52.808 101.649 53.012C101.313 53.216 101.055 53.48 100.875 53.804C100.695 54.128 100.593 54.47 100.569 54.83ZM113.173 60.5C112.405 60.5 111.769 60.398 111.265 60.194C110.773 59.99 110.401 59.66 110.149 59.204C109.909 58.748 109.789 58.136 109.789 57.368V52.958H108.331V51.014H109.789V48.368H111.985V51.014H114.199V52.958H111.985V57.08C111.985 57.56 112.069 57.926 112.237 58.178C112.405 58.43 112.783 58.556 113.371 58.556H114.127V60.5H113.173ZM115.66 60.5V51.014H117.856V60.5H115.66ZM116.758 49.916C116.338 49.916 116.002 49.79 115.75 49.538C115.498 49.286 115.372 48.956 115.372 48.548C115.372 48.152 115.504 47.828 115.768 47.576C116.032 47.312 116.362 47.18 116.758 47.18C117.142 47.18 117.472 47.306 117.748 47.558C118.024 47.81 118.162 48.14 118.162 48.548C118.162 48.956 118.03 49.286 117.766 49.538C117.502 49.79 117.166 49.916 116.758 49.916ZM119.984 60.5V51.014H122.036L122.162 52.22C122.414 51.884 122.708 51.62 123.044 51.428C123.38 51.236 123.734 51.098 124.106 51.014C124.478 50.918 124.826 50.87 125.15 50.87C126.05 50.87 126.758 51.068 127.274 51.464C127.802 51.86 128.174 52.388 128.39 53.048C128.606 53.708 128.714 54.446 128.714 55.262V60.5H126.518V55.622C126.518 55.274 126.494 54.938 126.446 54.614C126.398 54.278 126.302 53.978 126.158 53.714C126.026 53.45 125.834 53.24 125.582 53.084C125.33 52.928 124.994 52.85 124.574 52.85C124.058 52.85 123.62 52.988 123.26 53.264C122.9 53.54 122.63 53.912 122.45 54.38C122.27 54.836 122.18 55.358 122.18 55.946V60.5H119.984ZM135.187 64.838C134.491 64.838 133.837 64.724 133.225 64.496C132.625 64.28 132.115 63.932 131.695 63.452C131.287 62.984 131.011 62.378 130.867 61.634H133.117C133.189 61.922 133.333 62.156 133.549 62.336C133.765 62.516 134.017 62.642 134.305 62.714C134.605 62.798 134.911 62.84 135.223 62.84C135.811 62.84 136.273 62.72 136.609 62.48C136.957 62.24 137.203 61.91 137.347 61.49C137.491 61.082 137.563 60.632 137.563 60.14V59.24C137.347 59.588 137.071 59.864 136.735 60.068C136.411 60.272 136.063 60.416 135.691 60.5C135.331 60.572 134.971 60.608 134.611 60.608C133.627 60.608 132.823 60.392 132.199 59.96C131.587 59.528 131.137 58.952 130.849 58.232C130.561 57.5 130.417 56.696 130.417 55.82C130.417 54.908 130.573 54.08 130.885 53.336C131.209 52.58 131.689 51.98 132.325 51.536C132.973 51.092 133.783 50.87 134.755 50.87C135.319 50.87 135.847 50.972 136.339 51.176C136.843 51.368 137.263 51.662 137.599 52.058L137.743 51.014H139.777V59.672C139.777 60.74 139.621 61.658 139.309 62.426C139.009 63.206 138.523 63.8 137.851 64.208C137.179 64.628 136.291 64.838 135.187 64.838ZM135.061 58.664C135.625 58.664 136.093 58.532 136.465 58.268C136.837 57.992 137.119 57.632 137.311 57.188C137.503 56.732 137.599 56.24 137.599 55.712C137.599 55.172 137.503 54.686 137.311 54.254C137.131 53.822 136.855 53.48 136.483 53.228C136.123 52.976 135.655 52.85 135.079 52.85C134.467 52.85 133.981 52.988 133.621 53.264C133.261 53.54 132.997 53.906 132.829 54.362C132.673 54.806 132.595 55.28 132.595 55.784C132.595 56.312 132.679 56.798 132.847 57.242C133.015 57.674 133.279 58.022 133.639 58.286C133.999 58.538 134.473 58.664 135.061 58.664ZM28.932 82.626C27.972 82.626 27.18 82.41 26.556 81.978C25.932 81.534 25.464 80.946 25.152 80.214C24.852 79.482 24.702 78.666 24.702 77.766C24.702 76.83 24.864 75.996 25.188 75.264C25.512 74.52 25.998 73.938 26.646 73.518C27.294 73.086 28.104 72.87 29.076 72.87C29.436 72.87 29.784 72.912 30.12 72.996C30.468 73.068 30.792 73.188 31.092 73.356C31.404 73.512 31.662 73.722 31.866 73.986V69.774H34.062V82.5H31.938L31.902 81.312C31.674 81.612 31.404 81.858 31.092 82.05C30.792 82.242 30.456 82.386 30.084 82.482C29.712 82.578 29.328 82.626 28.932 82.626ZM29.346 80.646C29.922 80.646 30.396 80.514 30.768 80.25C31.14 79.974 31.416 79.614 31.596 79.17C31.788 78.714 31.884 78.234 31.884 77.73C31.884 77.202 31.788 76.722 31.596 76.29C31.416 75.858 31.14 75.51 30.768 75.246C30.396 74.982 29.922 74.85 29.346 74.85C28.734 74.85 28.248 74.988 27.888 75.264C27.54 75.54 27.282 75.906 27.114 76.362C26.958 76.806 26.88 77.286 26.88 77.802C26.88 78.186 26.922 78.552 27.006 78.9C27.102 79.236 27.246 79.536 27.438 79.8C27.63 80.064 27.882 80.274 28.194 80.43C28.506 80.574 28.89 80.646 29.346 80.646ZM36.189 82.5V73.014H38.385V82.5H36.189ZM37.287 71.916C36.867 71.916 36.531 71.79 36.279 71.538C36.027 71.286 35.901 70.956 35.901 70.548C35.901 70.152 36.033 69.828 36.297 69.576C36.561 69.312 36.891 69.18 37.287 69.18C37.671 69.18 38.001 69.306 38.277 69.558C38.553 69.81 38.691 70.14 38.691 70.548C38.691 70.956 38.559 71.286 38.295 71.538C38.031 71.79 37.695 71.916 37.287 71.916ZM44.9232 86.838C44.2272 86.838 43.5732 86.724 42.9612 86.496C42.3612 86.28 41.8512 85.932 41.4312 85.452C41.0232 84.984 40.7472 84.378 40.6032 83.634H42.8532C42.9252 83.922 43.0692 84.156 43.2852 84.336C43.5012 84.516 43.7532 84.642 44.0412 84.714C44.3412 84.798 44.6472 84.84 44.9592 84.84C45.5472 84.84 46.0092 84.72 46.3452 84.48C46.6932 84.24 46.9392 83.91 47.0832 83.49C47.2272 83.082 47.2992 82.632 47.2992 82.14V81.24C47.0832 81.588 46.8072 81.864 46.4712 82.068C46.1472 82.272 45.7992 82.416 45.4272 82.5C45.0672 82.572 44.7072 82.608 44.3472 82.608C43.3632 82.608 42.5592 82.392 41.9352 81.96C41.3232 81.528 40.8732 80.952 40.5852 80.232C40.2972 79.5 40.1532 78.696 40.1532 77.82C40.1532 76.908 40.3092 76.08 40.6212 75.336C40.9452 74.58 41.4252 73.98 42.0612 73.536C42.7092 73.092 43.5192 72.87 44.4912 72.87C45.0552 72.87 45.5832 72.972 46.0752 73.176C46.5792 73.368 46.9992 73.662 47.3352 74.058L47.4792 73.014H49.5132V81.672C49.5132 82.74 49.3572 83.658 49.0452 84.426C48.7452 85.206 48.2592 85.8 47.5872 86.208C46.9152 86.628 46.0272 86.838 44.9232 86.838ZM44.7972 80.664C45.3612 80.664 45.8292 80.532 46.2012 80.268C46.5732 79.992 46.8552 79.632 47.0472 79.188C47.2392 78.732 47.3352 78.24 47.3352 77.712C47.3352 77.172 47.2392 76.686 47.0472 76.254C46.8672 75.822 46.5912 75.48 46.2192 75.228C45.8592 74.976 45.3912 74.85 44.8152 74.85C44.2032 74.85 43.7172 74.988 43.3572 75.264C42.9972 75.54 42.7332 75.906 42.5652 76.362C42.4092 76.806 42.3312 77.28 42.3312 77.784C42.3312 78.312 42.4152 78.798 42.5832 79.242C42.7512 79.674 43.0152 80.022 43.3752 80.286C43.7352 80.538 44.2092 80.664 44.7972 80.664ZM51.6401 82.5V73.014H53.8361V82.5H51.6401ZM52.7381 71.916C52.3181 71.916 51.9821 71.79 51.7301 71.538C51.4781 71.286 51.3521 70.956 51.3521 70.548C51.3521 70.152 51.4841 69.828 51.7481 69.576C52.0121 69.312 52.3421 69.18 52.7381 69.18C53.1221 69.18 53.4521 69.306 53.7281 69.558C54.0041 69.81 54.1421 70.14 54.1421 70.548C54.1421 70.956 54.0101 71.286 53.7461 71.538C53.4821 71.79 53.1461 71.916 52.7381 71.916ZM59.7443 82.608C58.7003 82.608 57.9383 82.32 57.4583 81.744C56.9783 81.168 56.7383 80.37 56.7383 79.35V74.958H55.2803V73.014H56.7383V70.35H58.9343V73.014H61.8143V74.958H58.9343V78.936C58.9343 79.248 58.9703 79.53 59.0423 79.782C59.1143 80.034 59.2463 80.232 59.4383 80.376C59.6303 80.52 59.8943 80.598 60.2303 80.61C60.5183 80.61 60.7643 80.562 60.9683 80.466C61.1723 80.37 61.3403 80.262 61.4723 80.142L62.2103 81.816C61.9823 82.008 61.7243 82.164 61.4363 82.284C61.1603 82.404 60.8783 82.488 60.5903 82.536C60.3023 82.584 60.0203 82.608 59.7443 82.608ZM66.4239 82.626C65.9799 82.626 65.5599 82.566 65.1639 82.446C64.7679 82.326 64.4139 82.152 64.1019 81.924C63.7899 81.684 63.5379 81.39 63.3459 81.042C63.1659 80.682 63.0759 80.262 63.0759 79.782C63.0759 79.17 63.1959 78.672 63.4359 78.288C63.6759 77.892 63.9999 77.592 64.4079 77.388C64.8279 77.184 65.3019 77.046 65.8299 76.974C66.3579 76.89 66.9099 76.848 67.4859 76.848H69.3399C69.3399 76.428 69.2739 76.068 69.1419 75.768C69.0099 75.456 68.7999 75.21 68.5119 75.03C68.2359 74.85 67.8759 74.76 67.4319 74.76C67.1439 74.76 66.8739 74.796 66.6219 74.868C66.3819 74.928 66.1719 75.03 65.9919 75.174C65.8239 75.306 65.7039 75.48 65.6319 75.696H63.3819C63.4659 75.204 63.6339 74.784 63.8859 74.436C64.1499 74.076 64.4679 73.782 64.8399 73.554C65.2239 73.326 65.6439 73.158 66.0999 73.05C66.5559 72.93 67.0179 72.87 67.4859 72.87C68.8659 72.87 69.8679 73.266 70.4919 74.058C71.1279 74.85 71.4459 75.96 71.4459 77.388V82.5H69.5019L69.4479 81.276C69.1719 81.684 68.8419 81.984 68.4579 82.176C68.0739 82.368 67.7019 82.488 67.3419 82.536C66.9819 82.596 66.6759 82.626 66.4239 82.626ZM66.8559 80.844C67.3359 80.844 67.7619 80.754 68.1339 80.574C68.5059 80.394 68.7999 80.142 69.0159 79.818C69.2439 79.494 69.3579 79.122 69.3579 78.702V78.396H67.6299C67.3419 78.396 67.0539 78.408 66.7659 78.432C66.4899 78.444 66.2379 78.492 66.0099 78.576C65.7819 78.648 65.5959 78.762 65.4519 78.918C65.3199 79.074 65.2539 79.296 65.2539 79.584C65.2539 79.872 65.3259 80.106 65.4699 80.286C65.6259 80.466 65.8239 80.604 66.0639 80.7C66.3159 80.796 66.5799 80.844 66.8559 80.844ZM73.5425 82.5V69.774H75.7385V82.5H73.5425Z" fill="black"/>
<rect x="7" y="157.5" width="179" height="67" fill="#FDFFFD"/>
<path d="M40.8535 202.596C39.9735 202.596 39.2375 202.412 38.6455 202.044C38.0615 201.676 37.6215 201.168 37.3255 200.52C37.0295 199.864 36.8815 199.116 36.8815 198.276C36.8815 197.644 36.9615 197.064 37.1215 196.536C37.2895 196 37.5375 195.536 37.8655 195.144C38.1935 194.752 38.6015 194.452 39.0895 194.244C39.5855 194.028 40.1575 193.92 40.8055 193.92C41.4375 193.92 41.9935 194.02 42.4735 194.22C42.9535 194.412 43.3495 194.692 43.6615 195.06C43.9815 195.428 44.1975 195.872 44.3095 196.392H42.9655C42.8935 196.112 42.7575 195.876 42.5575 195.684C42.3655 195.492 42.1215 195.344 41.8255 195.24C41.5375 195.136 41.2095 195.084 40.8415 195.084C40.3615 195.084 39.9535 195.168 39.6175 195.336C39.2815 195.504 39.0055 195.736 38.7895 196.032C38.5815 196.32 38.4295 196.656 38.3335 197.04C38.2375 197.424 38.1895 197.832 38.1895 198.264C38.1895 198.84 38.2815 199.368 38.4655 199.848C38.6495 200.328 38.9375 200.712 39.3295 201C39.7215 201.288 40.2335 201.432 40.8655 201.432C41.3535 201.432 41.7735 201.348 42.1255 201.18C42.4775 201.004 42.7535 200.756 42.9535 200.436C43.1535 200.108 43.2575 199.712 43.2655 199.248H40.6375V198.132H44.5135V198.756C44.5135 199.532 44.3695 200.208 44.0815 200.784C43.7935 201.36 43.3775 201.808 42.8335 202.128C42.2895 202.44 41.6295 202.596 40.8535 202.596ZM48.5771 202.572C47.9131 202.572 47.3571 202.436 46.9091 202.164C46.4611 201.892 46.1211 201.516 45.8891 201.036C45.6651 200.548 45.5531 199.988 45.5531 199.356C45.5531 198.716 45.6691 198.152 45.9011 197.664C46.1411 197.176 46.4851 196.792 46.9331 196.512C47.3891 196.232 47.9371 196.092 48.5771 196.092C49.0651 196.092 49.4891 196.184 49.8491 196.368C50.2091 196.544 50.5051 196.784 50.7371 197.088C50.9771 197.392 51.1531 197.732 51.2651 198.108C51.3771 198.476 51.4251 198.86 51.4091 199.26C51.4091 199.348 51.4051 199.432 51.3971 199.512C51.3891 199.592 51.3811 199.676 51.3731 199.764H46.8011C46.8251 200.084 46.9051 200.376 47.0411 200.64C47.1851 200.904 47.3851 201.116 47.6411 201.276C47.8971 201.428 48.2131 201.504 48.5891 201.504C48.7971 201.504 48.9971 201.48 49.1891 201.432C49.3891 201.376 49.5651 201.292 49.7171 201.18C49.8771 201.06 49.9891 200.908 50.0531 200.724H51.3011C51.1971 201.148 51.0091 201.5 50.7371 201.78C50.4731 202.052 50.1491 202.252 49.7651 202.38C49.3891 202.508 48.9931 202.572 48.5771 202.572ZM46.8251 198.78H50.1851C50.1771 198.468 50.1051 198.192 49.9691 197.952C49.8331 197.704 49.6451 197.512 49.4051 197.376C49.1651 197.232 48.8771 197.16 48.5411 197.16C48.1731 197.16 47.8651 197.236 47.6171 197.388C47.3771 197.54 47.1891 197.74 47.0531 197.988C46.9251 198.228 46.8491 198.492 46.8251 198.78ZM52.6837 202.5V196.176H53.8597L53.9197 197.064C54.0797 196.832 54.2717 196.648 54.4957 196.512C54.7197 196.368 54.9597 196.264 55.2157 196.2C55.4717 196.128 55.7197 196.092 55.9597 196.092C56.5677 196.092 57.0437 196.224 57.3877 196.488C57.7397 196.744 57.9877 197.092 58.1317 197.532C58.2837 197.964 58.3597 198.456 58.3597 199.008V202.5H57.1117V199.26C57.1117 199.004 57.0957 198.752 57.0637 198.504C57.0317 198.256 56.9637 198.036 56.8597 197.844C56.7637 197.644 56.6237 197.488 56.4397 197.376C56.2557 197.256 56.0077 197.196 55.6957 197.196C55.3117 197.196 54.9877 197.3 54.7237 197.508C54.4597 197.716 54.2597 197.996 54.1237 198.348C53.9877 198.7 53.9197 199.096 53.9197 199.536V202.5H52.6837ZM62.6162 202.572C61.9522 202.572 61.3962 202.436 60.9482 202.164C60.5002 201.892 60.1602 201.516 59.9282 201.036C59.7042 200.548 59.5922 199.988 59.5922 199.356C59.5922 198.716 59.7082 198.152 59.9402 197.664C60.1802 197.176 60.5242 196.792 60.9722 196.512C61.4282 196.232 61.9762 196.092 62.6162 196.092C63.1042 196.092 63.5282 196.184 63.8882 196.368C64.2482 196.544 64.5442 196.784 64.7762 197.088C65.0162 197.392 65.1922 197.732 65.3042 198.108C65.4162 198.476 65.4642 198.86 65.4482 199.26C65.4482 199.348 65.4442 199.432 65.4362 199.512C65.4282 199.592 65.4202 199.676 65.4122 199.764H60.8402C60.8642 200.084 60.9442 200.376 61.0802 200.64C61.2242 200.904 61.4242 201.116 61.6802 201.276C61.9362 201.428 62.2522 201.504 62.6282 201.504C62.8362 201.504 63.0362 201.48 63.2282 201.432C63.4282 201.376 63.6042 201.292 63.7562 201.18C63.9162 201.06 64.0282 200.908 64.0922 200.724H65.3402C65.2362 201.148 65.0482 201.5 64.7762 201.78C64.5122 202.052 64.1882 202.252 63.8042 202.38C63.4282 202.508 63.0322 202.572 62.6162 202.572ZM60.8642 198.78H64.2242C64.2162 198.468 64.1442 198.192 64.0082 197.952C63.8722 197.704 63.6842 197.512 63.4442 197.376C63.2042 197.232 62.9162 197.16 62.5802 197.16C62.2122 197.16 61.9042 197.236 61.6562 197.388C61.4162 197.54 61.2282 197.74 61.0922 197.988C60.9642 198.228 60.8882 198.492 60.8642 198.78ZM66.7228 202.5V196.176H67.8868L67.9468 197.088C68.1068 196.84 68.2908 196.644 68.4988 196.5C68.7068 196.356 68.9348 196.252 69.1828 196.188C69.4308 196.124 69.6908 196.092 69.9628 196.092C70.0348 196.092 70.1028 196.092 70.1668 196.092C70.2308 196.092 70.2908 196.092 70.3468 196.092V197.28H69.9628C69.5068 197.28 69.1268 197.372 68.8228 197.556C68.5268 197.74 68.3068 197.996 68.1628 198.324C68.0268 198.652 67.9588 199.028 67.9588 199.452V202.5H66.7228ZM73.2974 202.572C73.0094 202.572 72.7294 202.536 72.4574 202.464C72.1934 202.384 71.9574 202.268 71.7494 202.116C71.5414 201.956 71.3734 201.76 71.2454 201.528C71.1254 201.288 71.0654 201.008 71.0654 200.688C71.0654 200.304 71.1374 199.988 71.2814 199.74C71.4334 199.484 71.6334 199.288 71.8814 199.152C72.1294 199.008 72.4134 198.908 72.7334 198.852C73.0614 198.788 73.4014 198.756 73.7534 198.756H75.3014C75.3014 198.444 75.2534 198.172 75.1574 197.94C75.0614 197.7 74.9094 197.516 74.7014 197.388C74.5014 197.252 74.2334 197.184 73.8974 197.184C73.6974 197.184 73.5054 197.208 73.3214 197.256C73.1454 197.296 72.9934 197.364 72.8654 197.46C72.7374 197.556 72.6494 197.684 72.6014 197.844H71.3054C71.3534 197.54 71.4614 197.28 71.6294 197.064C71.7974 196.84 72.0054 196.656 72.2534 196.512C72.5014 196.368 72.7654 196.264 73.0454 196.2C73.3334 196.128 73.6254 196.092 73.9214 196.092C74.8334 196.092 75.4894 196.36 75.8894 196.896C76.2974 197.424 76.5014 198.152 76.5014 199.08V202.5H75.4334L75.3854 201.696C75.2014 201.944 74.9814 202.132 74.7254 202.26C74.4774 202.388 74.2294 202.472 73.9814 202.512C73.7334 202.552 73.5054 202.572 73.2974 202.572ZM73.4894 201.528C73.8494 201.528 74.1654 201.468 74.4374 201.348C74.7094 201.22 74.9214 201.04 75.0734 200.808C75.2254 200.568 75.3014 200.288 75.3014 199.968V199.704H74.1734C73.9414 199.704 73.7134 199.712 73.4894 199.728C73.2734 199.736 73.0734 199.768 72.8894 199.824C72.7134 199.872 72.5694 199.956 72.4574 200.076C72.3534 200.196 72.3014 200.368 72.3014 200.592C72.3014 200.808 72.3574 200.984 72.4694 201.12C72.5814 201.256 72.7294 201.36 72.9134 201.432C73.0974 201.496 73.2894 201.528 73.4894 201.528ZM80.5405 202.572C79.9085 202.572 79.3845 202.432 78.9685 202.152C78.5605 201.864 78.2525 201.476 78.0445 200.988C77.8445 200.5 77.7445 199.952 77.7445 199.344C77.7445 198.728 77.8485 198.176 78.0565 197.688C78.2645 197.192 78.5805 196.804 79.0045 196.524C79.4285 196.236 79.9645 196.092 80.6125 196.092C80.8525 196.092 81.0925 196.12 81.3325 196.176C81.5805 196.232 81.8085 196.32 82.0165 196.44C82.2325 196.552 82.4165 196.704 82.5685 196.896V194.016H83.8045V202.5H82.6165L82.5685 201.636C82.4245 201.852 82.2445 202.032 82.0285 202.176C81.8205 202.312 81.5885 202.412 81.3325 202.476C81.0765 202.54 80.8125 202.572 80.5405 202.572ZM80.7445 201.468C81.1525 201.468 81.4885 201.368 81.7525 201.168C82.0245 200.968 82.2285 200.704 82.3645 200.376C82.5005 200.048 82.5685 199.692 82.5685 199.308C82.5685 198.916 82.5005 198.564 82.3645 198.252C82.2365 197.932 82.0365 197.68 81.7645 197.496C81.5005 197.304 81.1605 197.208 80.7445 197.208C80.3125 197.208 79.9685 197.308 79.7125 197.508C79.4565 197.7 79.2685 197.96 79.1485 198.288C79.0365 198.616 78.9805 198.976 78.9805 199.368C78.9805 199.656 79.0125 199.928 79.0765 200.184C79.1405 200.432 79.2405 200.656 79.3765 200.856C79.5205 201.048 79.7045 201.2 79.9285 201.312C80.1525 201.416 80.4245 201.468 80.7445 201.468ZM88.1405 202.572C87.4845 202.572 86.9285 202.44 86.4725 202.176C86.0165 201.904 85.6685 201.524 85.4285 201.036C85.1965 200.548 85.0805 199.984 85.0805 199.344C85.0805 198.696 85.2005 198.132 85.4405 197.652C85.6805 197.164 86.0285 196.784 86.4845 196.512C86.9405 196.232 87.4965 196.092 88.1525 196.092C88.8085 196.092 89.3645 196.232 89.8205 196.512C90.2765 196.784 90.6205 197.164 90.8525 197.652C91.0845 198.14 91.2005 198.708 91.2005 199.356C91.2005 199.988 91.0805 200.548 90.8405 201.036C90.6085 201.524 90.2645 201.904 89.8085 202.176C89.3605 202.44 88.8045 202.572 88.1405 202.572ZM88.1405 201.468C88.5725 201.468 88.9205 201.372 89.1845 201.18C89.4565 200.988 89.6565 200.732 89.7845 200.412C89.9125 200.084 89.9765 199.728 89.9765 199.344C89.9765 198.96 89.9125 198.608 89.7845 198.288C89.6565 197.968 89.4565 197.712 89.1845 197.52C88.9205 197.32 88.5725 197.22 88.1405 197.22C87.7165 197.22 87.3685 197.32 87.0965 197.52C86.8245 197.712 86.6245 197.968 86.4965 198.288C86.3765 198.608 86.3165 198.96 86.3165 199.344C86.3165 199.736 86.3765 200.092 86.4965 200.412C86.6245 200.732 86.8245 200.988 87.0965 201.18C87.3685 201.372 87.7165 201.468 88.1405 201.468ZM95.7619 204.804V196.176H96.9379L96.9979 197.076C97.2219 196.748 97.5139 196.504 97.8739 196.344C98.2339 196.176 98.6259 196.092 99.0499 196.092C99.6819 196.092 100.202 196.236 100.61 196.524C101.018 196.804 101.322 197.192 101.522 197.688C101.722 198.176 101.822 198.724 101.822 199.332C101.822 199.956 101.718 200.512 101.51 201C101.31 201.488 100.998 201.872 100.574 202.152C100.158 202.432 99.6299 202.572 98.9899 202.572C98.6859 202.572 98.4059 202.54 98.1499 202.476C97.9019 202.412 97.6819 202.32 97.4899 202.2C97.3059 202.072 97.1419 201.924 96.9979 201.756V204.804H95.7619ZM98.8339 201.468C99.2659 201.468 99.6099 201.372 99.8659 201.18C100.122 200.98 100.306 200.72 100.418 200.4C100.53 200.08 100.586 199.732 100.586 199.356C100.586 198.964 100.526 198.608 100.406 198.288C100.294 197.96 100.106 197.7 99.8419 197.508C99.5859 197.308 99.2419 197.208 98.8099 197.208C98.4179 197.208 98.0859 197.308 97.8139 197.508C97.5419 197.7 97.3339 197.96 97.1899 198.288C97.0539 198.616 96.9859 198.972 96.9859 199.356C96.9859 199.748 97.0499 200.108 97.1779 200.436C97.3139 200.756 97.5179 201.008 97.7899 201.192C98.0699 201.376 98.4179 201.468 98.8339 201.468ZM105.918 202.572C105.262 202.572 104.706 202.44 104.25 202.176C103.794 201.904 103.446 201.524 103.206 201.036C102.974 200.548 102.858 199.984 102.858 199.344C102.858 198.696 102.978 198.132 103.218 197.652C103.458 197.164 103.806 196.784 104.262 196.512C104.718 196.232 105.274 196.092 105.93 196.092C106.586 196.092 107.142 196.232 107.598 196.512C108.054 196.784 108.398 197.164 108.63 197.652C108.862 198.14 108.978 198.708 108.978 199.356C108.978 199.988 108.858 200.548 108.618 201.036C108.386 201.524 108.042 201.904 107.586 202.176C107.138 202.44 106.582 202.572 105.918 202.572ZM105.918 201.468C106.35 201.468 106.698 201.372 106.962 201.18C107.234 200.988 107.434 200.732 107.562 200.412C107.69 200.084 107.754 199.728 107.754 199.344C107.754 198.96 107.69 198.608 107.562 198.288C107.434 197.968 107.234 197.712 106.962 197.52C106.698 197.32 106.35 197.22 105.918 197.22C105.494 197.22 105.146 197.32 104.874 197.52C104.602 197.712 104.402 197.968 104.274 198.288C104.154 198.608 104.094 198.96 104.094 199.344C104.094 199.736 104.154 200.092 104.274 200.412C104.402 200.732 104.602 200.988 104.874 201.18C105.146 201.372 105.494 201.468 105.918 201.468ZM110.246 202.5V196.176H111.41L111.47 197.088C111.63 196.84 111.814 196.644 112.022 196.5C112.23 196.356 112.458 196.252 112.706 196.188C112.954 196.124 113.214 196.092 113.486 196.092C113.558 196.092 113.626 196.092 113.69 196.092C113.754 196.092 113.814 196.092 113.87 196.092V197.28H113.486C113.03 197.28 112.65 197.372 112.346 197.556C112.05 197.74 111.83 197.996 111.686 198.324C111.55 198.652 111.482 199.028 111.482 199.452V202.5H110.246ZM118.23 202.5V194.004H121.95C122.342 194.004 122.698 194.044 123.018 194.124C123.346 194.196 123.63 194.316 123.87 194.484C124.11 194.652 124.294 194.876 124.422 195.156C124.558 195.436 124.626 195.792 124.626 196.224C124.626 196.576 124.546 196.904 124.386 197.208C124.226 197.512 123.99 197.744 123.678 197.904C124.094 198.04 124.422 198.276 124.662 198.612C124.902 198.94 125.022 199.376 125.022 199.92C125.022 200.408 124.93 200.82 124.746 201.156C124.562 201.484 124.31 201.748 123.99 201.948C123.67 202.148 123.298 202.292 122.874 202.38C122.45 202.46 121.998 202.5 121.518 202.5H118.23ZM119.946 200.916H121.722C121.938 200.916 122.138 200.9 122.322 200.868C122.514 200.836 122.682 200.784 122.826 200.712C122.97 200.632 123.082 200.524 123.162 200.388C123.25 200.252 123.294 200.084 123.294 199.884C123.294 199.7 123.258 199.548 123.186 199.428C123.122 199.3 123.026 199.196 122.898 199.116C122.778 199.036 122.634 198.98 122.466 198.948C122.306 198.916 122.126 198.9 121.926 198.9H119.946V200.916ZM119.946 197.472H121.518C121.734 197.472 121.93 197.452 122.106 197.412C122.282 197.372 122.43 197.308 122.55 197.22C122.67 197.132 122.762 197.024 122.826 196.896C122.89 196.76 122.922 196.604 122.922 196.428C122.93 196.188 122.878 196.012 122.766 195.9C122.654 195.78 122.502 195.7 122.31 195.66C122.118 195.612 121.902 195.588 121.662 195.588H119.946V197.472ZM128.991 202.584C128.063 202.584 127.347 202.348 126.843 201.876C126.347 201.396 126.099 200.676 126.099 199.716V196.176H127.779V199.596C127.779 199.884 127.819 200.14 127.899 200.364C127.987 200.58 128.119 200.752 128.295 200.88C128.479 201.008 128.715 201.072 129.003 201.072C129.315 201.072 129.555 201.004 129.723 200.868C129.891 200.732 130.007 200.552 130.071 200.328C130.135 200.096 130.167 199.852 130.167 199.596V196.176H131.835V199.716C131.835 200.716 131.583 201.444 131.079 201.9C130.583 202.356 129.887 202.584 128.991 202.584ZM136.01 202.584C135.082 202.584 134.366 202.348 133.862 201.876C133.366 201.396 133.118 200.676 133.118 199.716V196.176H134.798V199.596C134.798 199.884 134.838 200.14 134.918 200.364C135.006 200.58 135.138 200.752 135.314 200.88C135.498 201.008 135.734 201.072 136.022 201.072C136.334 201.072 136.574 201.004 136.742 200.868C136.91 200.732 137.026 200.552 137.09 200.328C137.154 200.096 137.186 199.852 137.186 199.596V196.176H138.854V199.716C138.854 200.716 138.602 201.444 138.098 201.9C137.602 202.356 136.906 202.584 136.01 202.584ZM142.994 202.584C142.346 202.584 141.79 202.452 141.326 202.188C140.87 201.924 140.522 201.552 140.282 201.072C140.042 200.584 139.922 200.012 139.922 199.356C139.922 198.692 140.046 198.116 140.294 197.628C140.542 197.132 140.898 196.748 141.362 196.476C141.834 196.204 142.402 196.068 143.066 196.068C143.578 196.068 144.034 196.16 144.434 196.344C144.834 196.528 145.154 196.792 145.394 197.136C145.642 197.48 145.786 197.904 145.826 198.408H144.182C144.11 198.128 143.97 197.924 143.762 197.796C143.562 197.668 143.322 197.604 143.042 197.604C142.682 197.604 142.394 197.692 142.178 197.868C141.97 198.044 141.818 198.268 141.722 198.54C141.634 198.812 141.59 199.084 141.59 199.356C141.59 199.652 141.638 199.932 141.734 200.196C141.83 200.452 141.982 200.664 142.19 200.832C142.406 200.992 142.686 201.072 143.03 201.072C143.318 201.072 143.57 201.008 143.786 200.88C144.002 200.744 144.142 200.536 144.206 200.256H145.886C145.846 200.776 145.69 201.208 145.418 201.552C145.146 201.896 144.798 202.156 144.374 202.332C143.958 202.5 143.498 202.584 142.994 202.584ZM146.9 202.5V194.004H148.58V202.5H146.9ZM152.708 205.416C152.22 205.416 151.744 205.352 151.28 205.224C150.816 205.096 150.38 204.88 149.972 204.576L150.536 203.232C150.792 203.424 151.084 203.576 151.412 203.688C151.74 203.808 152.104 203.868 152.504 203.868C153.12 203.868 153.576 203.724 153.872 203.436C154.176 203.148 154.328 202.732 154.328 202.188V201.852C154.192 202.036 154.02 202.184 153.812 202.296C153.612 202.4 153.396 202.476 153.164 202.524C152.932 202.572 152.7 202.596 152.468 202.596C151.86 202.596 151.372 202.468 151.004 202.212C150.636 201.956 150.368 201.608 150.2 201.168C150.04 200.72 149.96 200.212 149.96 199.644V196.176H151.64V199.296C151.64 199.504 151.652 199.712 151.676 199.92C151.7 200.128 151.756 200.32 151.844 200.496C151.932 200.672 152.064 200.816 152.24 200.928C152.416 201.032 152.652 201.084 152.948 201.084C153.332 201.084 153.62 200.992 153.812 200.808C154.004 200.616 154.132 200.376 154.196 200.088C154.268 199.8 154.304 199.5 154.304 199.188V196.176H155.984V201.588C155.984 202.164 155.928 202.688 155.816 203.16C155.712 203.632 155.532 204.036 155.276 204.372C155.028 204.708 154.692 204.964 154.268 205.14C153.852 205.324 153.332 205.416 152.708 205.416Z" fill="#6B7280"/>
</g>
<path d="M6.5 2.5H185.5H6.5ZM185.5 224.5H6.5H185.5ZM-1.5 224.5V11.5C-1.5 6.52944 2.52944 2.5 7.5 2.5H14.5C14.5 2.5 14.5 2.94772 14.5 3.5V224.5H-1.5ZM185.5 2.5V224.5V2.5Z" fill="#10B981" mask="url(#path-1-inside-1_304_1823)"/>
</g>
<defs>
<filter id="filter0_d_304_1823" x="0.5" y="0.5" width="191" height="234" filterUnits="userSpaceOnUse" color-interpolation-filters="sRGB">
<feFlood flood-opacity="0" result="BackgroundImageFix"/>
<feColorMatrix in="SourceAlpha" type="matrix" values="0 0 0 0 0 0 0 0 0 0 0 0 0 0 0 0 0 0 127 0" result="hardAlpha"/>
<feOffset dy="4"/>
<feGaussianBlur stdDeviation="3"/>
<feComposite in2="hardAlpha" operator="out"/>
<feColorMatrix type="matrix" values="0 0 0 0 0 0 0 0 0 0 0 0 0 0 0 0 0 0 0.09 0"/>
<feBlend mode="normal" in2="BackgroundImageFix" result="effect1_dropShadow_304_1823"/>
<feBlend mode="normal" in="SourceGraphic" in2="effect1_dropShadow_304_1823" result="shape"/>
</filter>
<linearGradient id="paint0_linear_304_1823" x1="96" y1="2.5" x2="53.4328" y2="200.093" gradientUnits="userSpaceOnUse">
<stop stop-color="#D7FAD1"/>
<stop offset="1" stop-color="#9DF6D1"/>
</linearGradient>
<clipPath id="clip0_304_1823">
<path d="M6.5 4.11001C6.5 3.54051 6.5 3.25576 6.61259 3.03903C6.70746 2.85638 6.85638 2.70746 7.03903 2.61259C7.25576 2.5 7.54051 2.5 8.11 2.5H172.62C177.176 2.5 179.454 2.5 181.188 3.40069C182.649 4.1597 183.84 5.35106 184.599 6.8122C185.5 8.54611 185.5 10.8241 185.5 15.38V224.5H6.5V4.11001Z" fill="white"/>
</clipPath>
</defs>
</svg>
