<svg width="192" height="222" viewBox="0 0 192 222" fill="none" xmlns="http://www.w3.org/2000/svg">
<g filter="url(#filter0_d_304_1842)">
<g clip-path="url(#clip0_304_1842)">
<mask id="path-1-inside-1_304_1842" fill="white">
<path d="M6.5 4.11001C6.5 3.54051 6.5 3.25576 6.61259 3.03903C6.70746 2.85638 6.85638 2.70746 7.03903 2.61259C7.25576 2.5 7.54051 2.5 8.11 2.5H172.62C177.176 2.5 179.454 2.5 181.188 3.40069C182.649 4.1597 183.84 5.35106 184.599 6.8122C185.5 8.54611 185.5 10.8241 185.5 15.38V224.5H6.5V4.11001Z"/>
</mask>
<path d="M6.5 4.11001C6.5 3.54051 6.5 3.25576 6.61259 3.03903C6.70746 2.85638 6.85638 2.70746 7.03903 2.61259C7.25576 2.5 7.54051 2.5 8.11 2.5H172.62C177.176 2.5 179.454 2.5 181.188 3.40069C182.649 4.1597 183.84 5.35106 184.599 6.8122C185.5 8.54611 185.5 10.8241 185.5 15.38V224.5H6.5V4.11001Z" fill="url(#paint0_linear_304_1842)"/>
<path d="M25.422 49.5V36.774H34.404V38.826H27.672V42.174H33.522V44.19H27.672V47.448H34.404V49.5H25.422ZM36.081 49.5V36.774H38.277V49.5H36.081ZM45.1989 49.5V40.014H47.2509L47.3769 41.22C47.6289 40.884 47.9229 40.62 48.2589 40.428C48.5949 40.236 48.9489 40.098 49.3209 40.014C49.6929 39.918 50.0409 39.87 50.3649 39.87C51.2649 39.87 51.9729 40.068 52.4889 40.464C53.0169 40.86 53.3889 41.388 53.6049 42.048C53.8209 42.708 53.9289 43.446 53.9289 44.262V49.5H51.7329V44.622C51.7329 44.274 51.7089 43.938 51.6609 43.614C51.6129 43.278 51.5169 42.978 51.3729 42.714C51.2409 42.45 51.0489 42.24 50.7969 42.084C50.5449 41.928 50.2089 41.85 49.7889 41.85C49.2729 41.85 48.8349 41.988 48.4749 42.264C48.1149 42.54 47.8449 42.912 47.6649 43.38C47.4849 43.836 47.3949 44.358 47.3949 44.946V49.5H45.1989ZM55.8839 49.5V40.014H58.0799V49.5H55.8839ZM56.9819 38.916C56.5619 38.916 56.2259 38.79 55.9739 38.538C55.7219 38.286 55.5959 37.956 55.5959 37.548C55.5959 37.152 55.7279 36.828 55.9919 36.576C56.2559 36.312 56.5859 36.18 56.9819 36.18C57.3659 36.18 57.6959 36.306 57.9719 36.558C58.2479 36.81 58.3859 37.14 58.3859 37.548C58.3859 37.956 58.2539 38.286 57.9899 38.538C57.7259 38.79 57.3899 38.916 56.9819 38.916ZM60.1001 49.5V40.014H62.1521L62.2781 41.22C62.5301 40.884 62.8241 40.62 63.1601 40.428C63.4961 40.236 63.8501 40.098 64.2221 40.014C64.5941 39.918 64.9421 39.87 65.2661 39.87C66.1661 39.87 66.8741 40.068 67.3901 40.464C67.9181 40.86 68.2901 41.388 68.5061 42.048C68.7221 42.708 68.8301 43.446 68.8301 44.262V49.5H66.6341V44.622C66.6341 44.274 66.6101 43.938 66.5621 43.614C66.5141 43.278 66.4181 42.978 66.2741 42.714C66.1421 42.45 65.9501 42.24 65.6981 42.084C65.4461 41.928 65.1101 41.85 64.6901 41.85C64.1741 41.85 63.7361 41.988 63.3761 42.264C63.0161 42.54 62.7461 42.912 62.5661 43.38C62.3861 43.836 62.2961 44.358 62.2961 44.946V49.5H60.1001ZM65.8061 38.916C65.4701 38.916 65.1761 38.856 64.9241 38.736C64.6721 38.604 64.4441 38.454 64.2401 38.286C64.0481 38.118 63.8681 37.974 63.7001 37.854C63.5441 37.722 63.3881 37.656 63.2321 37.656C63.0641 37.656 62.9381 37.728 62.8541 37.872C62.7821 38.016 62.7401 38.184 62.7281 38.376C62.7161 38.556 62.7161 38.706 62.7281 38.826H61.1441C61.1201 38.37 61.1621 37.932 61.2701 37.512C61.3901 37.092 61.6001 36.75 61.9001 36.486C62.2121 36.21 62.6441 36.072 63.1961 36.072C63.5081 36.072 63.7781 36.138 64.0061 36.27C64.2341 36.39 64.4381 36.534 64.6181 36.702C64.8101 36.858 64.9841 37.002 65.1401 37.134C65.3081 37.254 65.4641 37.314 65.6081 37.314C65.8001 37.314 65.9321 37.248 66.0041 37.116C66.0761 36.972 66.1181 36.816 66.1301 36.648C66.1421 36.468 66.1421 36.312 66.1301 36.18H67.7141C67.7261 36.624 67.6781 37.056 67.5701 37.476C67.4741 37.896 67.2881 38.244 67.0121 38.52C66.7361 38.784 66.3341 38.916 65.8061 38.916ZM75.1231 49.626C74.1511 49.626 73.3111 49.428 72.6031 49.032C71.9071 48.636 71.3671 48.072 70.9831 47.34C70.6111 46.608 70.4251 45.75 70.4251 44.766C70.4251 43.77 70.6171 42.912 71.0011 42.192C71.3851 41.46 71.9251 40.89 72.6211 40.482C73.3171 40.074 74.1511 39.87 75.1231 39.87C76.0831 39.87 76.9111 40.074 77.6071 40.482C78.3031 40.89 78.8371 41.466 79.2091 42.21C79.5811 42.942 79.7671 43.806 79.7671 44.802C79.7671 45.774 79.5811 46.626 79.2091 47.358C78.8491 48.078 78.3211 48.636 77.6251 49.032C76.9291 49.428 76.0951 49.626 75.1231 49.626ZM75.1051 47.628C75.7051 47.628 76.1851 47.496 76.5451 47.232C76.9171 46.968 77.1871 46.62 77.3551 46.188C77.5231 45.756 77.6071 45.288 77.6071 44.784C77.6071 44.28 77.5231 43.806 77.3551 43.362C77.1871 42.918 76.9171 42.564 76.5451 42.3C76.1851 42.024 75.7051 41.886 75.1051 41.886C74.5051 41.886 74.0191 42.024 73.6471 42.3C73.2751 42.564 73.0051 42.918 72.8371 43.362C72.6691 43.794 72.5851 44.268 72.5851 44.784C72.5851 45.288 72.6691 45.762 72.8371 46.206C73.0171 46.638 73.2871 46.986 73.6471 47.25C74.0191 47.502 74.5051 47.628 75.1051 47.628ZM91.4131 49.626C91.0651 49.626 90.7171 49.59 90.3691 49.518C90.0211 49.446 89.6851 49.32 89.3611 49.14C89.0491 48.96 88.7611 48.72 88.4971 48.42L88.4431 49.5H86.3191V36.774H88.5151V41.202C88.8631 40.758 89.3071 40.428 89.8471 40.212C90.3991 39.984 90.9691 39.87 91.5571 39.87C92.4931 39.87 93.2611 40.086 93.8611 40.518C94.4731 40.938 94.9231 41.514 95.2111 42.246C95.5111 42.978 95.6611 43.806 95.6611 44.73C95.6611 45.654 95.5051 46.488 95.1931 47.232C94.8931 47.964 94.4311 48.546 93.8071 48.978C93.1831 49.41 92.3851 49.626 91.4131 49.626ZM91.0531 47.682C91.6651 47.682 92.1451 47.544 92.4931 47.268C92.8531 46.98 93.1111 46.608 93.2671 46.152C93.4231 45.696 93.5011 45.216 93.5011 44.712C93.5011 44.196 93.4171 43.722 93.2491 43.29C93.0931 42.858 92.8351 42.51 92.4751 42.246C92.1151 41.982 91.6351 41.85 91.0351 41.85C90.4831 41.85 90.0151 41.994 89.6311 42.282C89.2591 42.558 88.9771 42.924 88.7851 43.38C88.5931 43.824 88.4971 44.286 88.4971 44.766C88.4971 45.27 88.5811 45.744 88.7491 46.188C88.9291 46.632 89.2051 46.992 89.5771 47.268C89.9611 47.544 90.4531 47.682 91.0531 47.682ZM100.344 49.626C99.9005 49.626 99.4805 49.566 99.0845 49.446C98.6885 49.326 98.3345 49.152 98.0225 48.924C97.7105 48.684 97.4585 48.39 97.2665 48.042C97.0865 47.682 96.9965 47.262 96.9965 46.782C96.9965 46.17 97.1165 45.672 97.3565 45.288C97.5965 44.892 97.9205 44.592 98.3285 44.388C98.7485 44.184 99.2225 44.046 99.7505 43.974C100.278 43.89 100.83 43.848 101.406 43.848H103.26C103.26 43.428 103.194 43.068 103.062 42.768C102.93 42.456 102.72 42.21 102.432 42.03C102.156 41.85 101.796 41.76 101.352 41.76C101.064 41.76 100.794 41.796 100.542 41.868C100.302 41.928 100.092 42.03 99.9125 42.174C99.7445 42.306 99.6245 42.48 99.5525 42.696H97.3025C97.3865 42.204 97.5545 41.784 97.8065 41.436C98.0705 41.076 98.3885 40.782 98.7605 40.554C99.1445 40.326 99.5645 40.158 100.02 40.05C100.476 39.93 100.938 39.87 101.406 39.87C102.786 39.87 103.788 40.266 104.412 41.058C105.048 41.85 105.366 42.96 105.366 44.388V49.5H103.422L103.368 48.276C103.092 48.684 102.762 48.984 102.378 49.176C101.994 49.368 101.622 49.488 101.262 49.536C100.902 49.596 100.596 49.626 100.344 49.626ZM100.776 47.844C101.256 47.844 101.682 47.754 102.054 47.574C102.426 47.394 102.72 47.142 102.936 46.818C103.164 46.494 103.278 46.122 103.278 45.702V45.396H101.55C101.262 45.396 100.974 45.408 100.686 45.432C100.41 45.444 100.158 45.492 99.9305 45.576C99.7025 45.648 99.5165 45.762 99.3725 45.918C99.2405 46.074 99.1745 46.296 99.1745 46.584C99.1745 46.872 99.2465 47.106 99.3905 47.286C99.5465 47.466 99.7445 47.604 99.9845 47.7C100.236 47.796 100.5 47.844 100.776 47.844ZM105.591 53.028V51.084H106.275C106.659 51.084 106.947 51.018 107.139 50.886C107.331 50.754 107.457 50.568 107.517 50.328C107.577 50.1 107.607 49.842 107.607 49.554V40.014H109.803V49.86C109.803 50.58 109.701 51.174 109.497 51.642C109.305 52.11 108.981 52.458 108.525 52.686C108.081 52.914 107.487 53.028 106.743 53.028H105.591ZM108.705 38.916C108.285 38.916 107.949 38.79 107.697 38.538C107.445 38.286 107.319 37.956 107.319 37.548C107.319 37.152 107.451 36.828 107.715 36.576C107.979 36.312 108.309 36.18 108.705 36.18C109.089 36.18 109.419 36.306 109.695 36.558C109.971 36.81 110.109 37.14 110.109 37.548C110.109 37.956 109.977 38.286 109.713 38.538C109.449 38.79 109.113 38.916 108.705 38.916ZM116.314 49.626C115.342 49.626 114.502 49.428 113.794 49.032C113.098 48.636 112.558 48.072 112.174 47.34C111.802 46.608 111.616 45.75 111.616 44.766C111.616 43.77 111.808 42.912 112.192 42.192C112.576 41.46 113.116 40.89 113.812 40.482C114.508 40.074 115.342 39.87 116.314 39.87C117.274 39.87 118.102 40.074 118.798 40.482C119.494 40.89 120.028 41.466 120.4 42.21C120.772 42.942 120.958 43.806 120.958 44.802C120.958 45.774 120.772 46.626 120.4 47.358C120.04 48.078 119.512 48.636 118.816 49.032C118.12 49.428 117.286 49.626 116.314 49.626ZM116.296 47.628C116.896 47.628 117.376 47.496 117.736 47.232C118.108 46.968 118.378 46.62 118.546 46.188C118.714 45.756 118.798 45.288 118.798 44.784C118.798 44.28 118.714 43.806 118.546 43.362C118.378 42.918 118.108 42.564 117.736 42.3C117.376 42.024 116.896 41.886 116.296 41.886C115.696 41.886 115.21 42.024 114.838 42.3C114.466 42.564 114.196 42.918 114.028 43.362C113.86 43.794 113.776 44.268 113.776 44.784C113.776 45.288 113.86 45.762 114.028 46.206C114.208 46.638 114.478 46.986 114.838 47.25C115.21 47.502 115.696 47.628 116.296 47.628ZM127.51 49.5V36.774H129.706V49.5H127.51ZM134.75 49.626C134.306 49.626 133.886 49.566 133.49 49.446C133.094 49.326 132.74 49.152 132.428 48.924C132.116 48.684 131.864 48.39 131.672 48.042C131.492 47.682 131.402 47.262 131.402 46.782C131.402 46.17 131.522 45.672 131.762 45.288C132.002 44.892 132.326 44.592 132.734 44.388C133.154 44.184 133.628 44.046 134.156 43.974C134.684 43.89 135.236 43.848 135.812 43.848H137.666C137.666 43.428 137.6 43.068 137.468 42.768C137.336 42.456 137.126 42.21 136.838 42.03C136.562 41.85 136.202 41.76 135.758 41.76C135.47 41.76 135.2 41.796 134.948 41.868C134.708 41.928 134.498 42.03 134.318 42.174C134.15 42.306 134.03 42.48 133.958 42.696H131.708C131.792 42.204 131.96 41.784 132.212 41.436C132.476 41.076 132.794 40.782 133.166 40.554C133.55 40.326 133.97 40.158 134.426 40.05C134.882 39.93 135.344 39.87 135.812 39.87C137.192 39.87 138.194 40.266 138.818 41.058C139.454 41.85 139.772 42.96 139.772 44.388V49.5H137.828L137.774 48.276C137.498 48.684 137.168 48.984 136.784 49.176C136.4 49.368 136.028 49.488 135.668 49.536C135.308 49.596 135.002 49.626 134.75 49.626ZM135.182 47.844C135.662 47.844 136.088 47.754 136.46 47.574C136.832 47.394 137.126 47.142 137.342 46.818C137.57 46.494 137.684 46.122 137.684 45.702V45.396H135.956C135.668 45.396 135.38 45.408 135.092 45.432C134.816 45.444 134.564 45.492 134.336 45.576C134.108 45.648 133.922 45.762 133.778 45.918C133.646 46.074 133.58 46.296 133.58 46.584C133.58 46.872 133.652 47.106 133.796 47.286C133.952 47.466 134.15 47.604 134.39 47.7C134.642 47.796 134.906 47.844 135.182 47.844ZM25.062 71.5V58.774H27.258V71.5H25.062ZM29.2782 71.5V58.774H31.4742V71.5H29.2782ZM37.6884 71.626C36.3204 71.626 35.2704 71.272 34.5384 70.564C33.8184 69.856 33.4584 68.776 33.4584 67.324V62.014H35.6544V67.18C35.6544 67.684 35.7204 68.122 35.8524 68.494C35.9964 68.866 36.2184 69.154 36.5184 69.358C36.8304 69.55 37.2204 69.646 37.6884 69.646C38.1924 69.646 38.5884 69.544 38.8764 69.34C39.1764 69.124 39.3864 68.83 39.5064 68.458C39.6264 68.086 39.6864 67.66 39.6864 67.18V62.014H41.8824V67.324C41.8824 68.812 41.5104 69.904 40.7664 70.6C40.0344 71.284 39.0084 71.626 37.6884 71.626ZM46.275 71.5L42.837 62.014H45.267L47.769 69.628L50.253 62.014H52.665L49.227 71.5H46.275ZM53.6515 71.5V62.014H55.8475V71.5H53.6515ZM54.7495 60.916C54.3295 60.916 53.9935 60.79 53.7415 60.538C53.4895 60.286 53.3635 59.956 53.3635 59.548C53.3635 59.152 53.4955 58.828 53.7595 58.576C54.0235 58.312 54.3535 58.18 54.7495 58.18C55.1335 58.18 55.4635 58.306 55.7395 58.558C56.0155 58.81 56.1535 59.14 56.1535 59.548C56.1535 59.956 56.0215 60.286 55.7575 60.538C55.4935 60.79 55.1575 60.916 54.7495 60.916ZM60.8917 71.626C60.4477 71.626 60.0277 71.566 59.6317 71.446C59.2357 71.326 58.8817 71.152 58.5697 70.924C58.2577 70.684 58.0057 70.39 57.8137 70.042C57.6337 69.682 57.5437 69.262 57.5437 68.782C57.5437 68.17 57.6637 67.672 57.9037 67.288C58.1437 66.892 58.4677 66.592 58.8757 66.388C59.2957 66.184 59.7697 66.046 60.2977 65.974C60.8257 65.89 61.3777 65.848 61.9537 65.848H63.8077C63.8077 65.428 63.7417 65.068 63.6097 64.768C63.4777 64.456 63.2677 64.21 62.9797 64.03C62.7037 63.85 62.3437 63.76 61.8997 63.76C61.6117 63.76 61.3417 63.796 61.0897 63.868C60.8497 63.928 60.6397 64.03 60.4597 64.174C60.2917 64.306 60.1717 64.48 60.0997 64.696H57.8497C57.9337 64.204 58.1017 63.784 58.3537 63.436C58.6177 63.076 58.9357 62.782 59.3077 62.554C59.6917 62.326 60.1117 62.158 60.5677 62.05C61.0237 61.93 61.4857 61.87 61.9537 61.87C63.3337 61.87 64.3357 62.266 64.9597 63.058C65.5957 63.85 65.9137 64.96 65.9137 66.388V71.5H63.9697L63.9157 70.276C63.6397 70.684 63.3097 70.984 62.9257 71.176C62.5417 71.368 62.1697 71.488 61.8097 71.536C61.4497 71.596 61.1437 71.626 60.8917 71.626ZM61.3237 69.844C61.8037 69.844 62.2297 69.754 62.6017 69.574C62.9737 69.394 63.2677 69.142 63.4837 68.818C63.7117 68.494 63.8257 68.122 63.8257 67.702V67.396H62.0977C61.8097 67.396 61.5217 67.408 61.2337 67.432C60.9577 67.444 60.7057 67.492 60.4777 67.576C60.2497 67.648 60.0637 67.762 59.9197 67.918C59.7877 68.074 59.7217 68.296 59.7217 68.584C59.7217 68.872 59.7937 69.106 59.9377 69.286C60.0937 69.466 60.2917 69.604 60.5317 69.7C60.7837 69.796 61.0477 69.844 61.3237 69.844Z" fill="black"/>
<rect x="7" y="157.5" width="179" height="67" fill="#FDFFFD"/>
<path d="M40.8535 202.596C39.9735 202.596 39.2375 202.412 38.6455 202.044C38.0615 201.676 37.6215 201.168 37.3255 200.52C37.0295 199.864 36.8815 199.116 36.8815 198.276C36.8815 197.644 36.9615 197.064 37.1215 196.536C37.2895 196 37.5375 195.536 37.8655 195.144C38.1935 194.752 38.6015 194.452 39.0895 194.244C39.5855 194.028 40.1575 193.92 40.8055 193.92C41.4375 193.92 41.9935 194.02 42.4735 194.22C42.9535 194.412 43.3495 194.692 43.6615 195.06C43.9815 195.428 44.1975 195.872 44.3095 196.392H42.9655C42.8935 196.112 42.7575 195.876 42.5575 195.684C42.3655 195.492 42.1215 195.344 41.8255 195.24C41.5375 195.136 41.2095 195.084 40.8415 195.084C40.3615 195.084 39.9535 195.168 39.6175 195.336C39.2815 195.504 39.0055 195.736 38.7895 196.032C38.5815 196.32 38.4295 196.656 38.3335 197.04C38.2375 197.424 38.1895 197.832 38.1895 198.264C38.1895 198.84 38.2815 199.368 38.4655 199.848C38.6495 200.328 38.9375 200.712 39.3295 201C39.7215 201.288 40.2335 201.432 40.8655 201.432C41.3535 201.432 41.7735 201.348 42.1255 201.18C42.4775 201.004 42.7535 200.756 42.9535 200.436C43.1535 200.108 43.2575 199.712 43.2655 199.248H40.6375V198.132H44.5135V198.756C44.5135 199.532 44.3695 200.208 44.0815 200.784C43.7935 201.36 43.3775 201.808 42.8335 202.128C42.2895 202.44 41.6295 202.596 40.8535 202.596ZM48.5771 202.572C47.9131 202.572 47.3571 202.436 46.9091 202.164C46.4611 201.892 46.1211 201.516 45.8891 201.036C45.6651 200.548 45.5531 199.988 45.5531 199.356C45.5531 198.716 45.6691 198.152 45.9011 197.664C46.1411 197.176 46.4851 196.792 46.9331 196.512C47.3891 196.232 47.9371 196.092 48.5771 196.092C49.0651 196.092 49.4891 196.184 49.8491 196.368C50.2091 196.544 50.5051 196.784 50.7371 197.088C50.9771 197.392 51.1531 197.732 51.2651 198.108C51.3771 198.476 51.4251 198.86 51.4091 199.26C51.4091 199.348 51.4051 199.432 51.3971 199.512C51.3891 199.592 51.3811 199.676 51.3731 199.764H46.8011C46.8251 200.084 46.9051 200.376 47.0411 200.64C47.1851 200.904 47.3851 201.116 47.6411 201.276C47.8971 201.428 48.2131 201.504 48.5891 201.504C48.7971 201.504 48.9971 201.48 49.1891 201.432C49.3891 201.376 49.5651 201.292 49.7171 201.18C49.8771 201.06 49.9891 200.908 50.0531 200.724H51.3011C51.1971 201.148 51.0091 201.5 50.7371 201.78C50.4731 202.052 50.1491 202.252 49.7651 202.38C49.3891 202.508 48.9931 202.572 48.5771 202.572ZM46.8251 198.78H50.1851C50.1771 198.468 50.1051 198.192 49.9691 197.952C49.8331 197.704 49.6451 197.512 49.4051 197.376C49.1651 197.232 48.8771 197.16 48.5411 197.16C48.1731 197.16 47.8651 197.236 47.6171 197.388C47.3771 197.54 47.1891 197.74 47.0531 197.988C46.9251 198.228 46.8491 198.492 46.8251 198.78ZM52.6837 202.5V196.176H53.8597L53.9197 197.064C54.0797 196.832 54.2717 196.648 54.4957 196.512C54.7197 196.368 54.9597 196.264 55.2157 196.2C55.4717 196.128 55.7197 196.092 55.9597 196.092C56.5677 196.092 57.0437 196.224 57.3877 196.488C57.7397 196.744 57.9877 197.092 58.1317 197.532C58.2837 197.964 58.3597 198.456 58.3597 199.008V202.5H57.1117V199.26C57.1117 199.004 57.0957 198.752 57.0637 198.504C57.0317 198.256 56.9637 198.036 56.8597 197.844C56.7637 197.644 56.6237 197.488 56.4397 197.376C56.2557 197.256 56.0077 197.196 55.6957 197.196C55.3117 197.196 54.9877 197.3 54.7237 197.508C54.4597 197.716 54.2597 197.996 54.1237 198.348C53.9877 198.7 53.9197 199.096 53.9197 199.536V202.5H52.6837ZM62.6162 202.572C61.9522 202.572 61.3962 202.436 60.9482 202.164C60.5002 201.892 60.1602 201.516 59.9282 201.036C59.7042 200.548 59.5922 199.988 59.5922 199.356C59.5922 198.716 59.7082 198.152 59.9402 197.664C60.1802 197.176 60.5242 196.792 60.9722 196.512C61.4282 196.232 61.9762 196.092 62.6162 196.092C63.1042 196.092 63.5282 196.184 63.8882 196.368C64.2482 196.544 64.5442 196.784 64.7762 197.088C65.0162 197.392 65.1922 197.732 65.3042 198.108C65.4162 198.476 65.4642 198.86 65.4482 199.26C65.4482 199.348 65.4442 199.432 65.4362 199.512C65.4282 199.592 65.4202 199.676 65.4122 199.764H60.8402C60.8642 200.084 60.9442 200.376 61.0802 200.64C61.2242 200.904 61.4242 201.116 61.6802 201.276C61.9362 201.428 62.2522 201.504 62.6282 201.504C62.8362 201.504 63.0362 201.48 63.2282 201.432C63.4282 201.376 63.6042 201.292 63.7562 201.18C63.9162 201.06 64.0282 200.908 64.0922 200.724H65.3402C65.2362 201.148 65.0482 201.5 64.7762 201.78C64.5122 202.052 64.1882 202.252 63.8042 202.38C63.4282 202.508 63.0322 202.572 62.6162 202.572ZM60.8642 198.78H64.2242C64.2162 198.468 64.1442 198.192 64.0082 197.952C63.8722 197.704 63.6842 197.512 63.4442 197.376C63.2042 197.232 62.9162 197.16 62.5802 197.16C62.2122 197.16 61.9042 197.236 61.6562 197.388C61.4162 197.54 61.2282 197.74 61.0922 197.988C60.9642 198.228 60.8882 198.492 60.8642 198.78ZM66.7228 202.5V196.176H67.8868L67.9468 197.088C68.1068 196.84 68.2908 196.644 68.4988 196.5C68.7068 196.356 68.9348 196.252 69.1828 196.188C69.4308 196.124 69.6908 196.092 69.9628 196.092C70.0348 196.092 70.1028 196.092 70.1668 196.092C70.2308 196.092 70.2908 196.092 70.3468 196.092V197.28H69.9628C69.5068 197.28 69.1268 197.372 68.8228 197.556C68.5268 197.74 68.3068 197.996 68.1628 198.324C68.0268 198.652 67.9588 199.028 67.9588 199.452V202.5H66.7228ZM73.2974 202.572C73.0094 202.572 72.7294 202.536 72.4574 202.464C72.1934 202.384 71.9574 202.268 71.7494 202.116C71.5414 201.956 71.3734 201.76 71.2454 201.528C71.1254 201.288 71.0654 201.008 71.0654 200.688C71.0654 200.304 71.1374 199.988 71.2814 199.74C71.4334 199.484 71.6334 199.288 71.8814 199.152C72.1294 199.008 72.4134 198.908 72.7334 198.852C73.0614 198.788 73.4014 198.756 73.7534 198.756H75.3014C75.3014 198.444 75.2534 198.172 75.1574 197.94C75.0614 197.7 74.9094 197.516 74.7014 197.388C74.5014 197.252 74.2334 197.184 73.8974 197.184C73.6974 197.184 73.5054 197.208 73.3214 197.256C73.1454 197.296 72.9934 197.364 72.8654 197.46C72.7374 197.556 72.6494 197.684 72.6014 197.844H71.3054C71.3534 197.54 71.4614 197.28 71.6294 197.064C71.7974 196.84 72.0054 196.656 72.2534 196.512C72.5014 196.368 72.7654 196.264 73.0454 196.2C73.3334 196.128 73.6254 196.092 73.9214 196.092C74.8334 196.092 75.4894 196.36 75.8894 196.896C76.2974 197.424 76.5014 198.152 76.5014 199.08V202.5H75.4334L75.3854 201.696C75.2014 201.944 74.9814 202.132 74.7254 202.26C74.4774 202.388 74.2294 202.472 73.9814 202.512C73.7334 202.552 73.5054 202.572 73.2974 202.572ZM73.4894 201.528C73.8494 201.528 74.1654 201.468 74.4374 201.348C74.7094 201.22 74.9214 201.04 75.0734 200.808C75.2254 200.568 75.3014 200.288 75.3014 199.968V199.704H74.1734C73.9414 199.704 73.7134 199.712 73.4894 199.728C73.2734 199.736 73.0734 199.768 72.8894 199.824C72.7134 199.872 72.5694 199.956 72.4574 200.076C72.3534 200.196 72.3014 200.368 72.3014 200.592C72.3014 200.808 72.3574 200.984 72.4694 201.12C72.5814 201.256 72.7294 201.36 72.9134 201.432C73.0974 201.496 73.2894 201.528 73.4894 201.528ZM80.5405 202.572C79.9085 202.572 79.3845 202.432 78.9685 202.152C78.5605 201.864 78.2525 201.476 78.0445 200.988C77.8445 200.5 77.7445 199.952 77.7445 199.344C77.7445 198.728 77.8485 198.176 78.0565 197.688C78.2645 197.192 78.5805 196.804 79.0045 196.524C79.4285 196.236 79.9645 196.092 80.6125 196.092C80.8525 196.092 81.0925 196.12 81.3325 196.176C81.5805 196.232 81.8085 196.32 82.0165 196.44C82.2325 196.552 82.4165 196.704 82.5685 196.896V194.016H83.8045V202.5H82.6165L82.5685 201.636C82.4245 201.852 82.2445 202.032 82.0285 202.176C81.8205 202.312 81.5885 202.412 81.3325 202.476C81.0765 202.54 80.8125 202.572 80.5405 202.572ZM80.7445 201.468C81.1525 201.468 81.4885 201.368 81.7525 201.168C82.0245 200.968 82.2285 200.704 82.3645 200.376C82.5005 200.048 82.5685 199.692 82.5685 199.308C82.5685 198.916 82.5005 198.564 82.3645 198.252C82.2365 197.932 82.0365 197.68 81.7645 197.496C81.5005 197.304 81.1605 197.208 80.7445 197.208C80.3125 197.208 79.9685 197.308 79.7125 197.508C79.4565 197.7 79.2685 197.96 79.1485 198.288C79.0365 198.616 78.9805 198.976 78.9805 199.368C78.9805 199.656 79.0125 199.928 79.0765 200.184C79.1405 200.432 79.2405 200.656 79.3765 200.856C79.5205 201.048 79.7045 201.2 79.9285 201.312C80.1525 201.416 80.4245 201.468 80.7445 201.468ZM88.1405 202.572C87.4845 202.572 86.9285 202.44 86.4725 202.176C86.0165 201.904 85.6685 201.524 85.4285 201.036C85.1965 200.548 85.0805 199.984 85.0805 199.344C85.0805 198.696 85.2005 198.132 85.4405 197.652C85.6805 197.164 86.0285 196.784 86.4845 196.512C86.9405 196.232 87.4965 196.092 88.1525 196.092C88.8085 196.092 89.3645 196.232 89.8205 196.512C90.2765 196.784 90.6205 197.164 90.8525 197.652C91.0845 198.14 91.2005 198.708 91.2005 199.356C91.2005 199.988 91.0805 200.548 90.8405 201.036C90.6085 201.524 90.2645 201.904 89.8085 202.176C89.3605 202.44 88.8045 202.572 88.1405 202.572ZM88.1405 201.468C88.5725 201.468 88.9205 201.372 89.1845 201.18C89.4565 200.988 89.6565 200.732 89.7845 200.412C89.9125 200.084 89.9765 199.728 89.9765 199.344C89.9765 198.96 89.9125 198.608 89.7845 198.288C89.6565 197.968 89.4565 197.712 89.1845 197.52C88.9205 197.32 88.5725 197.22 88.1405 197.22C87.7165 197.22 87.3685 197.32 87.0965 197.52C86.8245 197.712 86.6245 197.968 86.4965 198.288C86.3765 198.608 86.3165 198.96 86.3165 199.344C86.3165 199.736 86.3765 200.092 86.4965 200.412C86.6245 200.732 86.8245 200.988 87.0965 201.18C87.3685 201.372 87.7165 201.468 88.1405 201.468ZM95.7619 204.804V196.176H96.9379L96.9979 197.076C97.2219 196.748 97.5139 196.504 97.8739 196.344C98.2339 196.176 98.6259 196.092 99.0499 196.092C99.6819 196.092 100.202 196.236 100.61 196.524C101.018 196.804 101.322 197.192 101.522 197.688C101.722 198.176 101.822 198.724 101.822 199.332C101.822 199.956 101.718 200.512 101.51 201C101.31 201.488 100.998 201.872 100.574 202.152C100.158 202.432 99.6299 202.572 98.9899 202.572C98.6859 202.572 98.4059 202.54 98.1499 202.476C97.9019 202.412 97.6819 202.32 97.4899 202.2C97.3059 202.072 97.1419 201.924 96.9979 201.756V204.804H95.7619ZM98.8339 201.468C99.2659 201.468 99.6099 201.372 99.8659 201.18C100.122 200.98 100.306 200.72 100.418 200.4C100.53 200.08 100.586 199.732 100.586 199.356C100.586 198.964 100.526 198.608 100.406 198.288C100.294 197.96 100.106 197.7 99.8419 197.508C99.5859 197.308 99.2419 197.208 98.8099 197.208C98.4179 197.208 98.0859 197.308 97.8139 197.508C97.5419 197.7 97.3339 197.96 97.1899 198.288C97.0539 198.616 96.9859 198.972 96.9859 199.356C96.9859 199.748 97.0499 200.108 97.1779 200.436C97.3139 200.756 97.5179 201.008 97.7899 201.192C98.0699 201.376 98.4179 201.468 98.8339 201.468ZM105.918 202.572C105.262 202.572 104.706 202.44 104.25 202.176C103.794 201.904 103.446 201.524 103.206 201.036C102.974 200.548 102.858 199.984 102.858 199.344C102.858 198.696 102.978 198.132 103.218 197.652C103.458 197.164 103.806 196.784 104.262 196.512C104.718 196.232 105.274 196.092 105.93 196.092C106.586 196.092 107.142 196.232 107.598 196.512C108.054 196.784 108.398 197.164 108.63 197.652C108.862 198.14 108.978 198.708 108.978 199.356C108.978 199.988 108.858 200.548 108.618 201.036C108.386 201.524 108.042 201.904 107.586 202.176C107.138 202.44 106.582 202.572 105.918 202.572ZM105.918 201.468C106.35 201.468 106.698 201.372 106.962 201.18C107.234 200.988 107.434 200.732 107.562 200.412C107.69 200.084 107.754 199.728 107.754 199.344C107.754 198.96 107.69 198.608 107.562 198.288C107.434 197.968 107.234 197.712 106.962 197.52C106.698 197.32 106.35 197.22 105.918 197.22C105.494 197.22 105.146 197.32 104.874 197.52C104.602 197.712 104.402 197.968 104.274 198.288C104.154 198.608 104.094 198.96 104.094 199.344C104.094 199.736 104.154 200.092 104.274 200.412C104.402 200.732 104.602 200.988 104.874 201.18C105.146 201.372 105.494 201.468 105.918 201.468ZM110.246 202.5V196.176H111.41L111.47 197.088C111.63 196.84 111.814 196.644 112.022 196.5C112.23 196.356 112.458 196.252 112.706 196.188C112.954 196.124 113.214 196.092 113.486 196.092C113.558 196.092 113.626 196.092 113.69 196.092C113.754 196.092 113.814 196.092 113.87 196.092V197.28H113.486C113.03 197.28 112.65 197.372 112.346 197.556C112.05 197.74 111.83 197.996 111.686 198.324C111.55 198.652 111.482 199.028 111.482 199.452V202.5H110.246ZM118.23 202.5V194.004H121.95C122.342 194.004 122.698 194.044 123.018 194.124C123.346 194.196 123.63 194.316 123.87 194.484C124.11 194.652 124.294 194.876 124.422 195.156C124.558 195.436 124.626 195.792 124.626 196.224C124.626 196.576 124.546 196.904 124.386 197.208C124.226 197.512 123.99 197.744 123.678 197.904C124.094 198.04 124.422 198.276 124.662 198.612C124.902 198.94 125.022 199.376 125.022 199.92C125.022 200.408 124.93 200.82 124.746 201.156C124.562 201.484 124.31 201.748 123.99 201.948C123.67 202.148 123.298 202.292 122.874 202.38C122.45 202.46 121.998 202.5 121.518 202.5H118.23ZM119.946 200.916H121.722C121.938 200.916 122.138 200.9 122.322 200.868C122.514 200.836 122.682 200.784 122.826 200.712C122.97 200.632 123.082 200.524 123.162 200.388C123.25 200.252 123.294 200.084 123.294 199.884C123.294 199.7 123.258 199.548 123.186 199.428C123.122 199.3 123.026 199.196 122.898 199.116C122.778 199.036 122.634 198.98 122.466 198.948C122.306 198.916 122.126 198.9 121.926 198.9H119.946V200.916ZM119.946 197.472H121.518C121.734 197.472 121.93 197.452 122.106 197.412C122.282 197.372 122.43 197.308 122.55 197.22C122.67 197.132 122.762 197.024 122.826 196.896C122.89 196.76 122.922 196.604 122.922 196.428C122.93 196.188 122.878 196.012 122.766 195.9C122.654 195.78 122.502 195.7 122.31 195.66C122.118 195.612 121.902 195.588 121.662 195.588H119.946V197.472ZM128.991 202.584C128.063 202.584 127.347 202.348 126.843 201.876C126.347 201.396 126.099 200.676 126.099 199.716V196.176H127.779V199.596C127.779 199.884 127.819 200.14 127.899 200.364C127.987 200.58 128.119 200.752 128.295 200.88C128.479 201.008 128.715 201.072 129.003 201.072C129.315 201.072 129.555 201.004 129.723 200.868C129.891 200.732 130.007 200.552 130.071 200.328C130.135 200.096 130.167 199.852 130.167 199.596V196.176H131.835V199.716C131.835 200.716 131.583 201.444 131.079 201.9C130.583 202.356 129.887 202.584 128.991 202.584ZM136.01 202.584C135.082 202.584 134.366 202.348 133.862 201.876C133.366 201.396 133.118 200.676 133.118 199.716V196.176H134.798V199.596C134.798 199.884 134.838 200.14 134.918 200.364C135.006 200.58 135.138 200.752 135.314 200.88C135.498 201.008 135.734 201.072 136.022 201.072C136.334 201.072 136.574 201.004 136.742 200.868C136.91 200.732 137.026 200.552 137.09 200.328C137.154 200.096 137.186 199.852 137.186 199.596V196.176H138.854V199.716C138.854 200.716 138.602 201.444 138.098 201.9C137.602 202.356 136.906 202.584 136.01 202.584ZM142.994 202.584C142.346 202.584 141.79 202.452 141.326 202.188C140.87 201.924 140.522 201.552 140.282 201.072C140.042 200.584 139.922 200.012 139.922 199.356C139.922 198.692 140.046 198.116 140.294 197.628C140.542 197.132 140.898 196.748 141.362 196.476C141.834 196.204 142.402 196.068 143.066 196.068C143.578 196.068 144.034 196.16 144.434 196.344C144.834 196.528 145.154 196.792 145.394 197.136C145.642 197.48 145.786 197.904 145.826 198.408H144.182C144.11 198.128 143.97 197.924 143.762 197.796C143.562 197.668 143.322 197.604 143.042 197.604C142.682 197.604 142.394 197.692 142.178 197.868C141.97 198.044 141.818 198.268 141.722 198.54C141.634 198.812 141.59 199.084 141.59 199.356C141.59 199.652 141.638 199.932 141.734 200.196C141.83 200.452 141.982 200.664 142.19 200.832C142.406 200.992 142.686 201.072 143.03 201.072C143.318 201.072 143.57 201.008 143.786 200.88C144.002 200.744 144.142 200.536 144.206 200.256H145.886C145.846 200.776 145.69 201.208 145.418 201.552C145.146 201.896 144.798 202.156 144.374 202.332C143.958 202.5 143.498 202.584 142.994 202.584ZM146.9 202.5V194.004H148.58V202.5H146.9ZM152.708 205.416C152.22 205.416 151.744 205.352 151.28 205.224C150.816 205.096 150.38 204.88 149.972 204.576L150.536 203.232C150.792 203.424 151.084 203.576 151.412 203.688C151.74 203.808 152.104 203.868 152.504 203.868C153.12 203.868 153.576 203.724 153.872 203.436C154.176 203.148 154.328 202.732 154.328 202.188V201.852C154.192 202.036 154.02 202.184 153.812 202.296C153.612 202.4 153.396 202.476 153.164 202.524C152.932 202.572 152.7 202.596 152.468 202.596C151.86 202.596 151.372 202.468 151.004 202.212C150.636 201.956 150.368 201.608 150.2 201.168C150.04 200.72 149.96 200.212 149.96 199.644V196.176H151.64V199.296C151.64 199.504 151.652 199.712 151.676 199.92C151.7 200.128 151.756 200.32 151.844 200.496C151.932 200.672 152.064 200.816 152.24 200.928C152.416 201.032 152.652 201.084 152.948 201.084C153.332 201.084 153.62 200.992 153.812 200.808C154.004 200.616 154.132 200.376 154.196 200.088C154.268 199.8 154.304 199.5 154.304 199.188V196.176H155.984V201.588C155.984 202.164 155.928 202.688 155.816 203.16C155.712 203.632 155.532 204.036 155.276 204.372C155.028 204.708 154.692 204.964 154.268 205.14C153.852 205.324 153.332 205.416 152.708 205.416Z" fill="#6B7280"/>
</g>
<path d="M6.5 2.5H185.5H6.5ZM185.5 224.5H6.5H185.5ZM-1.5 224.5V11.5C-1.5 6.52944 2.52944 2.5 7.5 2.5H14.5C14.5 2.5 14.5 2.94772 14.5 3.5V224.5H-1.5ZM185.5 2.5V224.5V2.5Z" fill="#8B5CF6" mask="url(#path-1-inside-1_304_1842)"/>
</g>
<defs>
<filter id="filter0_d_304_1842" x="0.5" y="0.5" width="191" height="234" filterUnits="userSpaceOnUse" color-interpolation-filters="sRGB">
<feFlood flood-opacity="0" result="BackgroundImageFix"/>
<feColorMatrix in="SourceAlpha" type="matrix" values="0 0 0 0 0 0 0 0 0 0 0 0 0 0 0 0 0 0 127 0" result="hardAlpha"/>
<feOffset dy="4"/>
<feGaussianBlur stdDeviation="3"/>
<feComposite in2="hardAlpha" operator="out"/>
<feColorMatrix type="matrix" values="0 0 0 0 0 0 0 0 0 0 0 0 0 0 0 0 0 0 0.09 0"/>
<feBlend mode="normal" in2="BackgroundImageFix" result="effect1_dropShadow_304_1842"/>
<feBlend mode="normal" in="SourceGraphic" in2="effect1_dropShadow_304_1842" result="shape"/>
</filter>
<linearGradient id="paint0_linear_304_1842" x1="96" y1="-3" x2="29" y2="166.5" gradientUnits="userSpaceOnUse">
<stop stop-color="#FAE9FE"/>
<stop offset="1" stop-color="#C6B9FC"/>
</linearGradient>
<clipPath id="clip0_304_1842">
<path d="M6.5 4.11001C6.5 3.54051 6.5 3.25576 6.61259 3.03903C6.70746 2.85638 6.85638 2.70746 7.03903 2.61259C7.25576 2.5 7.54051 2.5 8.11 2.5H172.62C177.176 2.5 179.454 2.5 181.188 3.40069C182.649 4.1597 183.84 5.35106 184.599 6.8122C185.5 8.54611 185.5 10.8241 185.5 15.38V224.5H6.5V4.11001Z" fill="white"/>
</clipPath>
</defs>
</svg>
