<svg width="169" height="76" viewBox="0 0 169 76" fill="none" xmlns="http://www.w3.org/2000/svg">
<path d="M140.217 8.57288C140.217 8.57288 104.86 6.11835 82.2057 8.44112C69.9451 9.69823 53.9501 12.3317 42.2889 14.3978C31.9247 16.234 20.9238 18.3684 13.7342 26.056C10.6429 29.3614 8.02215 33.6699 7.29053 39.0976C6.4721 45.1692 7.60984 49.8691 9.54343 53.456C14.618 62.8696 26.9301 64.0143 37.6096 64.5767L125.628 69.2118C126.864 69.2769 128.089 69.3365 129.327 69.3222C135.982 69.2456 158.521 67.8793 161.618 53.0022C165.917 32.3568 118.477 25.8415 118.477 25.8415" stroke="#22C55E" stroke-width="13" stroke-linecap="round"/>
</svg>
